M48
; DRILL file KiCad 10.0.4 date 2026-07-02T17:59:40
; FORMAT={-:-/ absolute / metric / decimal}
; #@! TF.CreationDate,2026-07-02T17:59:40+03:00
; #@! TF.GenerationSoftware,Kicad,Pcbnew,10.0.4
; #@! TF.FileFunction,Plated,1,2,PTH
FMAT,2
METRIC
; #@! TA.AperFunction,Plated,PTH,ViaDrill
T1C0.300
; #@! TA.AperFunction,Plated,PTH,ComponentDrill
T2C0.800
; #@! TA.AperFunction,Plated,PTH,ComponentDrill
T3C0.850
; #@! TA.AperFunction,Plated,PTH,ComponentDrill
T4C0.900
; #@! TA.AperFunction,Plated,PTH,ComponentDrill
T5C1.000
%
G90
G05
T1
X134.25Y-59.0
X137.0Y-57.25
X157.5Y-43.705
T2
X108.34Y-54.75
X108.34Y-61.5
X118.5Y-54.75
X118.5Y-61.5
X152.67Y-127.0
X162.83Y-127.0
T3
X157.5Y-43.705
X157.5Y-64.205
T4
X140.71Y-127.75
X143.25Y-127.75
T5
X123.175Y-119.575
X125.715Y-119.575
X128.255Y-119.575
X130.795Y-119.575
X132.315Y-71.315
X133.335Y-119.575
X134.855Y-71.315
X135.875Y-119.575
X137.395Y-71.315
X138.415Y-119.575
X139.935Y-71.315
X140.955Y-119.575
X142.475Y-71.315
X143.495Y-119.575
X145.015Y-71.315
X146.035Y-119.575
X147.555Y-71.315
X150.095Y-71.315
X150.095Y-119.575
X152.635Y-119.575
X155.175Y-71.315
X155.175Y-119.575
X157.715Y-71.315
X157.715Y-119.575
X160.255Y-71.315
X160.255Y-119.575
X162.795Y-71.315
X162.795Y-119.575
X165.335Y-71.315
X165.335Y-119.575
X167.875Y-71.315
X167.875Y-119.575
M30
