%TF.GenerationSoftware,KiCad,Pcbnew,10.0.4*%
%TF.CreationDate,2026-07-02T17:59:45+03:00*%
%TF.ProjectId,smart-night-ambiance,736d6172-742d-46e6-9967-68742d616d62,rev?*%
%TF.SameCoordinates,Original*%
%TF.FileFunction,Soldermask,Top*%
%TF.FilePolarity,Negative*%
%FSLAX46Y46*%
G04 Gerber Fmt 4.6, Leading zero omitted, Abs format (unit mm)*
G04 Created by KiCad (PCBNEW 10.0.4) date 2026-07-02 17:59:45*
%MOMM*%
%LPD*%
G01*
G04 APERTURE LIST*
G04 Aperture macros list*
%AMRoundRect*
0 Rectangle with rounded corners*
0 $1 Rounding radius*
0 $2 $3 $4 $5 $6 $7 $8 $9 X,Y pos of 4 corners*
0 Add a 4 corners polygon primitive as box body*
4,1,4,$2,$3,$4,$5,$6,$7,$8,$9,$2,$3,0*
0 Add four circle primitives for the rounded corners*
1,1,$1+$1,$2,$3*
1,1,$1+$1,$4,$5*
1,1,$1+$1,$6,$7*
1,1,$1+$1,$8,$9*
0 Add four rect primitives between the rounded corners*
20,1,$1+$1,$2,$3,$4,$5,0*
20,1,$1+$1,$4,$5,$6,$7,0*
20,1,$1+$1,$6,$7,$8,$9,0*
20,1,$1+$1,$8,$9,$2,$3,0*%
G04 Aperture macros list end*
%ADD10C,1.800000*%
%ADD11R,1.800000X1.800000*%
%ADD12RoundRect,0.250000X-0.550000X0.250000X-0.550000X-0.250000X0.550000X-0.250000X0.550000X0.250000X0*%
%ADD13C,1.600000*%
%ADD14R,2.000000X1.600000*%
%ADD15O,2.000000X1.600000*%
%ADD16R,1.600000X1.600000*%
%ADD17O,1.600000X1.600000*%
G04 APERTURE END LIST*
D10*
%TO.C,Led*%
X143250000Y-127750000D03*
D11*
X140710000Y-127750000D03*
%TD*%
D12*
%TO.C,Switch*%
X134200000Y-55500000D03*
X136500000Y-57250000D03*
X134200000Y-59000000D03*
%TD*%
D13*
%TO.C,10k\u03A9*%
X118500000Y-54750000D03*
X108340000Y-54750000D03*
%TD*%
%TO.C,5 mm LDR*%
X108340000Y-61500000D03*
X118500000Y-61500000D03*
%TD*%
%TO.C,330\u03A9*%
X152670000Y-127000000D03*
X162830000Y-127000000D03*
%TD*%
D14*
%TO.C,CR2032 Pil*%
X157500122Y-43705000D03*
D15*
X157500122Y-64205000D03*
%TD*%
D16*
%TO.C,A1*%
X132315000Y-71315000D03*
D17*
X134855000Y-71315000D03*
X137395000Y-71315000D03*
X139935000Y-71315000D03*
X142475000Y-71315000D03*
X145015000Y-71315000D03*
X147555000Y-71315000D03*
X150095000Y-71315000D03*
X155175000Y-71315000D03*
X157715000Y-71315000D03*
X160255000Y-71315000D03*
X162795000Y-71315000D03*
X165335000Y-71315000D03*
X167875000Y-71315000D03*
X167875000Y-119575000D03*
X165335000Y-119575000D03*
X162795000Y-119575000D03*
X160255000Y-119575000D03*
X157715000Y-119575000D03*
X155175000Y-119575000D03*
X152635000Y-119575000D03*
X150095000Y-119575000D03*
X146035000Y-119575000D03*
X143495000Y-119575000D03*
X140955000Y-119575000D03*
X138415000Y-119575000D03*
X135875000Y-119575000D03*
X133335000Y-119575000D03*
X130795000Y-119575000D03*
X128255000Y-119575000D03*
X125715000Y-119575000D03*
X123175000Y-119575000D03*
%TD*%
M02*
