%TF.GenerationSoftware,KiCad,Pcbnew,10.0.4*%
%TF.CreationDate,2026-07-02T17:59:45+03:00*%
%TF.ProjectId,smart-night-ambiance,736d6172-742d-46e6-9967-68742d616d62,rev?*%
%TF.SameCoordinates,Original*%
%TF.FileFunction,Copper,L2,Bot*%
%TF.FilePolarity,Positive*%
%FSLAX46Y46*%
G04 Gerber Fmt 4.6, Leading zero omitted, Abs format (unit mm)*
G04 Created by KiCad (PCBNEW 10.0.4) date 2026-07-02 17:59:45*
%MOMM*%
%LPD*%
G01*
G04 APERTURE LIST*
%TA.AperFunction,ComponentPad*%
%ADD10C,1.800000*%
%TD*%
%TA.AperFunction,ComponentPad*%
%ADD11R,1.800000X1.800000*%
%TD*%
%TA.AperFunction,ComponentPad*%
%ADD12C,1.600000*%
%TD*%
%TA.AperFunction,ComponentPad*%
%ADD13R,2.000000X1.600000*%
%TD*%
%TA.AperFunction,ComponentPad*%
%ADD14O,2.000000X1.600000*%
%TD*%
%TA.AperFunction,ComponentPad*%
%ADD15R,1.600000X1.600000*%
%TD*%
%TA.AperFunction,ComponentPad*%
%ADD16O,1.600000X1.600000*%
%TD*%
%TA.AperFunction,ViaPad*%
%ADD17C,0.600000*%
%TD*%
%TA.AperFunction,Conductor*%
%ADD18C,0.200000*%
%TD*%
%TA.AperFunction,Conductor*%
%ADD19C,0.500000*%
%TD*%
G04 APERTURE END LIST*
D10*
%TO.P,Led,2,A_2*%
%TO.N,Net-(D1-A)*%
X143250000Y-127750000D03*
D11*
%TO.P,Led,1,K_1*%
%TO.N,GND*%
X140710000Y-127750000D03*
%TD*%
D12*
%TO.P,10k\u03A9,1*%
%TO.N,A0*%
X118500000Y-54750000D03*
%TO.P,10k\u03A9,2*%
%TO.N,GND*%
X108340000Y-54750000D03*
%TD*%
%TO.P,5 mm LDR,1*%
%TO.N,5V*%
X108340000Y-61500000D03*
%TO.P,5 mm LDR,2*%
%TO.N,A0*%
X118500000Y-61500000D03*
%TD*%
%TO.P,330\u03A9,1*%
%TO.N,Net-(D1-A)*%
X152670000Y-127000000D03*
%TO.P,330\u03A9,2*%
%TO.N,2*%
X162830000Y-127000000D03*
%TD*%
D13*
%TO.P,CR2032 Pil,1,+_1*%
%TO.N,Net-(BT1-+)*%
X157500122Y-43705000D03*
D14*
%TO.P,CR2032 Pil,2,-_2*%
%TO.N,GND*%
X157500122Y-64205000D03*
%TD*%
D15*
%TO.P,A1,1,NC_1*%
%TO.N,unconnected-(A1-NC-Pad1)*%
X132315000Y-71315000D03*
D16*
%TO.P,A1,2,IOREF_2*%
%TO.N,unconnected-(A1-IOREF-Pad2)*%
X134855000Y-71315000D03*
%TO.P,A1,3,~{RESET}_3*%
%TO.N,unconnected-(A1-~{RESET}-Pad3)*%
X137395000Y-71315000D03*
%TO.P,A1,4,3V3_4*%
%TO.N,unconnected-(A1-3V3-Pad4)*%
X139935000Y-71315000D03*
%TO.P,A1,5,+5V_5*%
%TO.N,5V*%
X142475000Y-71315000D03*
%TO.P,A1,6,GND_6*%
%TO.N,GND*%
X145015000Y-71315000D03*
%TO.P,A1,7,GND_7*%
X147555000Y-71315000D03*
%TO.P,A1,8,VIN_8*%
%TO.N,VIN*%
X150095000Y-71315000D03*
%TO.P,A1,9,A0_9*%
%TO.N,A0*%
X155175000Y-71315000D03*
%TO.P,A1,10,A1_10*%
%TO.N,unconnected-(A1-A1-Pad10)*%
X157715000Y-71315000D03*
%TO.P,A1,11,A2_11*%
%TO.N,unconnected-(A1-A2-Pad11)*%
X160255000Y-71315000D03*
%TO.P,A1,12,A3_12*%
%TO.N,unconnected-(A1-A3-Pad12)*%
X162795000Y-71315000D03*
%TO.P,A1,13,SDA/A4_13*%
%TO.N,unconnected-(A1-SDA{slash}A4-Pad13)*%
X165335000Y-71315000D03*
%TO.P,A1,14,SCL/A5_14*%
%TO.N,unconnected-(A1-SCL{slash}A5-Pad14)*%
X167875000Y-71315000D03*
%TO.P,A1,15,D0/RX_15*%
%TO.N,unconnected-(A1-D0{slash}RX-Pad15)*%
X167875000Y-119575000D03*
%TO.P,A1,16,D1/TX_16*%
%TO.N,unconnected-(A1-D1{slash}TX-Pad16)*%
X165335000Y-119575000D03*
%TO.P,A1,17,D2_17*%
%TO.N,2*%
X162795000Y-119575000D03*
%TO.P,A1,18,D3_18*%
%TO.N,unconnected-(A1-D3-Pad18)*%
X160255000Y-119575000D03*
%TO.P,A1,19,D4_19*%
%TO.N,unconnected-(A1-D4-Pad19)*%
X157715000Y-119575000D03*
%TO.P,A1,20,D5_20*%
%TO.N,unconnected-(A1-D5-Pad20)*%
X155175000Y-119575000D03*
%TO.P,A1,21,D6_21*%
%TO.N,unconnected-(A1-D6-Pad21)*%
X152635000Y-119575000D03*
%TO.P,A1,22,D7_22*%
%TO.N,unconnected-(A1-D7-Pad22)*%
X150095000Y-119575000D03*
%TO.P,A1,23,D8_23*%
%TO.N,unconnected-(A1-D8-Pad23)*%
X146035000Y-119575000D03*
%TO.P,A1,24,D9_24*%
%TO.N,unconnected-(A1-D9-Pad24)*%
X143495000Y-119575000D03*
%TO.P,A1,25,D10_25*%
%TO.N,unconnected-(A1-D10-Pad25)*%
X140955000Y-119575000D03*
%TO.P,A1,26,D11_26*%
%TO.N,unconnected-(A1-D11-Pad26)*%
X138415000Y-119575000D03*
%TO.P,A1,27,D12_27*%
%TO.N,unconnected-(A1-D12-Pad27)*%
X135875000Y-119575000D03*
%TO.P,A1,28,D13_28*%
%TO.N,unconnected-(A1-D13-Pad28)*%
X133335000Y-119575000D03*
%TO.P,A1,29,GND_29*%
%TO.N,GND*%
X130795000Y-119575000D03*
%TO.P,A1,30,AREF_30*%
%TO.N,unconnected-(A1-AREF-Pad30)*%
X128255000Y-119575000D03*
%TO.P,A1,31,SDA/A4_31*%
%TO.N,unconnected-(A1-SDA{slash}A4-Pad31)*%
X125715000Y-119575000D03*
%TO.P,A1,32,SCL/A5_32*%
%TO.N,unconnected-(A1-SCL{slash}A5-Pad32)*%
X123175000Y-119575000D03*
%TD*%
D17*
%TO.N,VIN*%
X134250000Y-59000000D03*
%TO.N,Net-(BT1-+)*%
X137000000Y-57250000D03*
X157500122Y-43705000D03*
%TD*%
%TO.N,2*%
D18*
X162830000Y-119610000D02*
X162795000Y-119575000D01*
X162830000Y-127000000D02*
X162830000Y-119610000D01*
%TO.N,Net-(D1-A)*%
X143250000Y-127000000D02*
X152670000Y-127000000D01*
%TO.N,5V*%
D19*
X110670000Y-64000000D02*
X135160000Y-64000000D01*
X108170000Y-61500000D02*
X110670000Y-64000000D01*
X135160000Y-64000000D02*
X142475000Y-71315000D01*
%TO.N,A0*%
D18*
X118500000Y-54750000D02*
X118500000Y-61500000D01*
%TO.N,VIN*%
D19*
X137780000Y-59000000D02*
X150095000Y-71315000D01*
X134250000Y-59000000D02*
X137780000Y-59000000D01*
%TO.N,Net-(BT1-+)*%
X150545000Y-43705000D02*
X157500122Y-43705000D01*
X137000000Y-57250000D02*
X150545000Y-43705000D01*
%TO.N,A0*%
D18*
X165750000Y-40250000D02*
X135500000Y-40250000D01*
X171500000Y-67250000D02*
X171500000Y-46000000D01*
X171250000Y-67500000D02*
X171500000Y-67250000D01*
X121000000Y-54750000D02*
X118580000Y-54750000D01*
X158990000Y-67500000D02*
X171250000Y-67500000D01*
X135500000Y-40250000D02*
X121000000Y-54750000D01*
X155175000Y-71315000D02*
X158990000Y-67500000D01*
X171500000Y-46000000D02*
X165750000Y-40250000D01*
%TD*%
%TA.AperFunction,Conductor*%
%TO.N,GND*%
G36*
X147089075Y-71122007D02*
G01*
X147055000Y-71249174D01*
X147055000Y-71380826D01*
X147089075Y-71507993D01*
X147121988Y-71565000D01*
X145448012Y-71565000D01*
X145480925Y-71507993D01*
X145515000Y-71380826D01*
X145515000Y-71249174D01*
X145480925Y-71122007D01*
X145448012Y-71065000D01*
X147121988Y-71065000D01*
X147089075Y-71122007D01*
G37*
%TD.AperFunction*%
%TA.AperFunction,Conductor*%
G36*
X174692539Y-38520185D02*
G01*
X174738294Y-38572989D01*
X174749500Y-38624500D01*
X174749500Y-136125500D01*
X174729815Y-136192539D01*
X174677011Y-136238294D01*
X174625500Y-136249500D01*
X96624500Y-136249500D01*
X96557461Y-136229815D01*
X96511706Y-136177011D01*
X96500500Y-136125500D01*
X96500500Y-126802155D01*
X139310000Y-126802155D01*
X139310000Y-127500000D01*
X140334722Y-127500000D01*
X140290667Y-127576306D01*
X140260000Y-127690756D01*
X140260000Y-127809244D01*
X140290667Y-127923694D01*
X140334722Y-128000000D01*
X139310000Y-128000000D01*
X139310000Y-128697844D01*
X139316401Y-128757372D01*
X139316403Y-128757379D01*
X139366645Y-128892086D01*
X139366649Y-128892093D01*
X139452809Y-129007187D01*
X139452812Y-129007190D01*
X139567906Y-129093350D01*
X139567913Y-129093354D01*
X139702620Y-129143596D01*
X139702627Y-129143598D01*
X139762155Y-129149999D01*
X139762172Y-129150000D01*
X140460000Y-129150000D01*
X140460000Y-128125277D01*
X140536306Y-128169333D01*
X140650756Y-128200000D01*
X140769244Y-128200000D01*
X140883694Y-128169333D01*
X140960000Y-128125277D01*
X140960000Y-129150000D01*
X141657828Y-129150000D01*
X141657844Y-129149999D01*
X141717372Y-129143598D01*
X141717379Y-129143596D01*
X141852086Y-129093354D01*
X141852093Y-129093350D01*
X141967187Y-129007190D01*
X141967190Y-129007187D01*
X142053350Y-128892093D01*
X142053354Y-128892086D01*
X142083213Y-128812031D01*
X142125084Y-128756097D01*
X142190548Y-128731680D01*
X142258821Y-128746531D01*
X142287076Y-128767683D01*
X142337636Y-128818243D01*
X142337641Y-128818247D01*
X142493192Y-128931260D01*
X142515978Y-128947815D01*
X142632501Y-129007187D01*
X142712393Y-129047895D01*
X142712396Y-129047896D01*
X142817221Y-129081955D01*
X142922049Y-129116015D01*
X143139778Y-129150500D01*
X143139779Y-129150500D01*
X143360221Y-129150500D01*
X143360222Y-129150500D01*
X143577951Y-129116015D01*
X143787606Y-129047895D01*
X143984022Y-128947815D01*
X144162365Y-128818242D01*
X144318242Y-128662365D01*
X144447815Y-128484022D01*
X144547895Y-128287606D01*
X144616015Y-128077951D01*
X144650500Y-127860222D01*
X144650500Y-127724500D01*
X144670185Y-127657461D01*
X144722989Y-127611706D01*
X144774500Y-127600500D01*
X151440398Y-127600500D01*
X151507437Y-127620185D01*
X151550883Y-127668205D01*
X151557715Y-127681614D01*
X151678028Y-127847213D01*
X151822786Y-127991971D01*
X151977749Y-128104556D01*
X151988390Y-128112287D01*
X152100349Y-128169333D01*
X152170776Y-128205218D01*
X152170778Y-128205218D01*
X152170781Y-128205220D01*
X152275137Y-128239127D01*
X152365465Y-128268477D01*
X152466557Y-128284488D01*
X152567648Y-128300500D01*
X152567649Y-128300500D01*
X152772351Y-128300500D01*
X152772352Y-128300500D01*
X152974534Y-128268477D01*
X153169219Y-128205220D01*
X153351610Y-128112287D01*
X153469954Y-128026306D01*
X153517213Y-127991971D01*
X153517215Y-127991968D01*
X153517219Y-127991966D01*
X153661966Y-127847219D01*
X153661968Y-127847215D01*
X153661971Y-127847213D01*
X153714732Y-127774590D01*
X153782287Y-127681610D01*
X153875220Y-127499219D01*
X153938477Y-127304534D01*
X153970500Y-127102352D01*
X153970500Y-126897648D01*
X153938477Y-126695466D01*
X153934022Y-126681756D01*
X153875218Y-126500776D01*
X153827255Y-126406645D01*
X153782287Y-126318390D01*
X153774556Y-126307749D01*
X153661971Y-126152786D01*
X153517213Y-126008028D01*
X153351613Y-125887715D01*
X153351612Y-125887714D01*
X153351610Y-125887713D01*
X153294653Y-125858691D01*
X153169223Y-125794781D01*
X152974534Y-125731522D01*
X152799995Y-125703878D01*
X152772352Y-125699500D01*
X152567648Y-125699500D01*
X152543329Y-125703351D01*
X152365465Y-125731522D01*
X152170776Y-125794781D01*
X151988386Y-125887715D01*
X151822786Y-126008028D01*
X151678028Y-126152786D01*
X151557715Y-126318385D01*
X151550883Y-126331795D01*
X151502909Y-126382591D01*
X151440398Y-126399500D01*
X143645342Y-126399500D01*
X143607024Y-126393431D01*
X143577952Y-126383985D01*
X143469086Y-126366742D01*
X143360222Y-126349500D01*
X143139778Y-126349500D01*
X143067201Y-126360995D01*
X142922047Y-126383985D01*
X142712396Y-126452103D01*
X142712393Y-126452104D01*
X142515974Y-126552187D01*
X142337641Y-126681752D01*
X142337636Y-126681756D01*
X142287075Y-126732317D01*
X142225752Y-126765801D01*
X142156060Y-126760816D01*
X142100127Y-126718945D01*
X142083213Y-126687968D01*
X142053354Y-126607913D01*
X142053350Y-126607906D01*
X141967190Y-126492812D01*
X141967187Y-126492809D01*
X141852093Y-126406649D01*
X141852086Y-126406645D01*
X141717379Y-126356403D01*
X141717372Y-126356401D01*
X141657844Y-126350000D01*
X140960000Y-126350000D01*
X140960000Y-127374722D01*
X140883694Y-127330667D01*
X140769244Y-127300000D01*
X140650756Y-127300000D01*
X140536306Y-127330667D01*
X140460000Y-127374722D01*
X140460000Y-126350000D01*
X139762155Y-126350000D01*
X139702627Y-126356401D01*
X139702620Y-126356403D01*
X139567913Y-126406645D01*
X139567906Y-126406649D01*
X139452812Y-126492809D01*
X139452809Y-126492812D01*
X139366649Y-126607906D01*
X139366645Y-126607913D01*
X139316403Y-126742620D01*
X139316401Y-126742627D01*
X139310000Y-126802155D01*
X96500500Y-126802155D01*
X96500500Y-119472648D01*
X121874500Y-119472648D01*
X121874500Y-119677351D01*
X121906522Y-119879534D01*
X121969781Y-120074223D01*
X122062715Y-120256613D01*
X122183028Y-120422213D01*
X122327786Y-120566971D01*
X122482749Y-120679556D01*
X122493390Y-120687287D01*
X122609500Y-120746448D01*
X122675776Y-120780218D01*
X122675778Y-120780218D01*
X122675781Y-120780220D01*
X122780137Y-120814127D01*
X122870465Y-120843477D01*
X122971557Y-120859488D01*
X123072648Y-120875500D01*
X123072649Y-120875500D01*
X123277351Y-120875500D01*
X123277352Y-120875500D01*
X123479534Y-120843477D01*
X123674219Y-120780220D01*
X123856610Y-120687287D01*
X123949590Y-120619732D01*
X124022213Y-120566971D01*
X124022215Y-120566968D01*
X124022219Y-120566966D01*
X124166966Y-120422219D01*
X124166968Y-120422215D01*
X124166971Y-120422213D01*
X124287284Y-120256614D01*
X124287286Y-120256611D01*
X124287287Y-120256610D01*
X124334516Y-120163917D01*
X124382489Y-120113123D01*
X124450310Y-120096328D01*
X124516445Y-120118865D01*
X124555485Y-120163919D01*
X124602715Y-120256614D01*
X124723028Y-120422213D01*
X124867786Y-120566971D01*
X125022749Y-120679556D01*
X125033390Y-120687287D01*
X125149500Y-120746448D01*
X125215776Y-120780218D01*
X125215778Y-120780218D01*
X125215781Y-120780220D01*
X125320137Y-120814127D01*
X125410465Y-120843477D01*
X125511557Y-120859488D01*
X125612648Y-120875500D01*
X125612649Y-120875500D01*
X125817351Y-120875500D01*
X125817352Y-120875500D01*
X126019534Y-120843477D01*
X126214219Y-120780220D01*
X126396610Y-120687287D01*
X126489590Y-120619732D01*
X126562213Y-120566971D01*
X126562215Y-120566968D01*
X126562219Y-120566966D01*
X126706966Y-120422219D01*
X126706968Y-120422215D01*
X126706971Y-120422213D01*
X126827284Y-120256614D01*
X126827286Y-120256611D01*
X126827287Y-120256610D01*
X126874516Y-120163917D01*
X126922489Y-120113123D01*
X126990310Y-120096328D01*
X127056445Y-120118865D01*
X127095485Y-120163919D01*
X127142715Y-120256614D01*
X127263028Y-120422213D01*
X127407786Y-120566971D01*
X127562749Y-120679556D01*
X127573390Y-120687287D01*
X127689500Y-120746448D01*
X127755776Y-120780218D01*
X127755778Y-120780218D01*
X127755781Y-120780220D01*
X127860137Y-120814127D01*
X127950465Y-120843477D01*
X128051557Y-120859488D01*
X128152648Y-120875500D01*
X128152649Y-120875500D01*
X128357351Y-120875500D01*
X128357352Y-120875500D01*
X128559534Y-120843477D01*
X128754219Y-120780220D01*
X128936610Y-120687287D01*
X129029590Y-120619732D01*
X129102213Y-120566971D01*
X129102215Y-120566968D01*
X129102219Y-120566966D01*
X129246966Y-120422219D01*
X129246968Y-120422215D01*
X129246971Y-120422213D01*
X129367284Y-120256614D01*
X129367286Y-120256611D01*
X129367287Y-120256610D01*
X129414795Y-120163369D01*
X129462770Y-120112574D01*
X129530591Y-120095779D01*
X129596725Y-120118316D01*
X129635765Y-120163370D01*
X129683140Y-120256349D01*
X129803417Y-120421894D01*
X129803417Y-120421895D01*
X129948104Y-120566582D01*
X130113650Y-120686859D01*
X130295968Y-120779754D01*
X130490578Y-120842988D01*
X130545000Y-120851607D01*
X130545000Y-120008012D01*
X130602007Y-120040925D01*
X130729174Y-120075000D01*
X130860826Y-120075000D01*
X130987993Y-120040925D01*
X131045000Y-120008012D01*
X131045000Y-120851606D01*
X131099421Y-120842988D01*
X131294031Y-120779754D01*
X131476349Y-120686859D01*
X131641894Y-120566582D01*
X131641895Y-120566582D01*
X131786582Y-120421895D01*
X131786582Y-120421894D01*
X131906861Y-120256347D01*
X131954234Y-120163371D01*
X132002208Y-120112575D01*
X132070028Y-120095779D01*
X132136164Y-120118316D01*
X132175203Y-120163369D01*
X132222713Y-120256611D01*
X132343028Y-120422213D01*
X132487786Y-120566971D01*
X132642749Y-120679556D01*
X132653390Y-120687287D01*
X132769500Y-120746448D01*
X132835776Y-120780218D01*
X132835778Y-120780218D01*
X132835781Y-120780220D01*
X132940137Y-120814127D01*
X133030465Y-120843477D01*
X133131557Y-120859488D01*
X133232648Y-120875500D01*
X133232649Y-120875500D01*
X133437351Y-120875500D01*
X133437352Y-120875500D01*
X133639534Y-120843477D01*
X133834219Y-120780220D01*
X134016610Y-120687287D01*
X134109590Y-120619732D01*
X134182213Y-120566971D01*
X134182215Y-120566968D01*
X134182219Y-120566966D01*
X134326966Y-120422219D01*
X134326968Y-120422215D01*
X134326971Y-120422213D01*
X134447284Y-120256614D01*
X134447286Y-120256611D01*
X134447287Y-120256610D01*
X134494516Y-120163917D01*
X134542489Y-120113123D01*
X134610310Y-120096328D01*
X134676445Y-120118865D01*
X134715485Y-120163919D01*
X134762715Y-120256614D01*
X134883028Y-120422213D01*
X135027786Y-120566971D01*
X135182749Y-120679556D01*
X135193390Y-120687287D01*
X135309500Y-120746448D01*
X135375776Y-120780218D01*
X135375778Y-120780218D01*
X135375781Y-120780220D01*
X135480137Y-120814127D01*
X135570465Y-120843477D01*
X135671557Y-120859488D01*
X135772648Y-120875500D01*
X135772649Y-120875500D01*
X135977351Y-120875500D01*
X135977352Y-120875500D01*
X136179534Y-120843477D01*
X136374219Y-120780220D01*
X136556610Y-120687287D01*
X136649590Y-120619732D01*
X136722213Y-120566971D01*
X136722215Y-120566968D01*
X136722219Y-120566966D01*
X136866966Y-120422219D01*
X136866968Y-120422215D01*
X136866971Y-120422213D01*
X136987284Y-120256614D01*
X136987286Y-120256611D01*
X136987287Y-120256610D01*
X137034516Y-120163917D01*
X137082489Y-120113123D01*
X137150310Y-120096328D01*
X137216445Y-120118865D01*
X137255485Y-120163919D01*
X137302715Y-120256614D01*
X137423028Y-120422213D01*
X137567786Y-120566971D01*
X137722749Y-120679556D01*
X137733390Y-120687287D01*
X137849500Y-120746448D01*
X137915776Y-120780218D01*
X137915778Y-120780218D01*
X137915781Y-120780220D01*
X138020137Y-120814127D01*
X138110465Y-120843477D01*
X138211557Y-120859488D01*
X138312648Y-120875500D01*
X138312649Y-120875500D01*
X138517351Y-120875500D01*
X138517352Y-120875500D01*
X138719534Y-120843477D01*
X138914219Y-120780220D01*
X139096610Y-120687287D01*
X139189590Y-120619732D01*
X139262213Y-120566971D01*
X139262215Y-120566968D01*
X139262219Y-120566966D01*
X139406966Y-120422219D01*
X139406968Y-120422215D01*
X139406971Y-120422213D01*
X139527284Y-120256614D01*
X139527286Y-120256611D01*
X139527287Y-120256610D01*
X139574516Y-120163917D01*
X139622489Y-120113123D01*
X139690310Y-120096328D01*
X139756445Y-120118865D01*
X139795485Y-120163919D01*
X139842715Y-120256614D01*
X139963028Y-120422213D01*
X140107786Y-120566971D01*
X140262749Y-120679556D01*
X140273390Y-120687287D01*
X140389500Y-120746448D01*
X140455776Y-120780218D01*
X140455778Y-120780218D01*
X140455781Y-120780220D01*
X140560137Y-120814127D01*
X140650465Y-120843477D01*
X140751557Y-120859488D01*
X140852648Y-120875500D01*
X140852649Y-120875500D01*
X141057351Y-120875500D01*
X141057352Y-120875500D01*
X141259534Y-120843477D01*
X141454219Y-120780220D01*
X141636610Y-120687287D01*
X141729590Y-120619732D01*
X141802213Y-120566971D01*
X141802215Y-120566968D01*
X141802219Y-120566966D01*
X141946966Y-120422219D01*
X141946968Y-120422215D01*
X141946971Y-120422213D01*
X142067284Y-120256614D01*
X142067286Y-120256611D01*
X142067287Y-120256610D01*
X142114516Y-120163917D01*
X142162489Y-120113123D01*
X142230310Y-120096328D01*
X142296445Y-120118865D01*
X142335485Y-120163919D01*
X142382715Y-120256614D01*
X142503028Y-120422213D01*
X142647786Y-120566971D01*
X142802749Y-120679556D01*
X142813390Y-120687287D01*
X142929500Y-120746448D01*
X142995776Y-120780218D01*
X142995778Y-120780218D01*
X142995781Y-120780220D01*
X143100137Y-120814127D01*
X143190465Y-120843477D01*
X143291557Y-120859488D01*
X143392648Y-120875500D01*
X143392649Y-120875500D01*
X143597351Y-120875500D01*
X143597352Y-120875500D01*
X143799534Y-120843477D01*
X143994219Y-120780220D01*
X144176610Y-120687287D01*
X144269590Y-120619732D01*
X144342213Y-120566971D01*
X144342215Y-120566968D01*
X144342219Y-120566966D01*
X144486966Y-120422219D01*
X144486968Y-120422215D01*
X144486971Y-120422213D01*
X144607284Y-120256614D01*
X144607286Y-120256611D01*
X144607287Y-120256610D01*
X144654516Y-120163917D01*
X144702489Y-120113123D01*
X144770310Y-120096328D01*
X144836445Y-120118865D01*
X144875485Y-120163919D01*
X144922715Y-120256614D01*
X145043028Y-120422213D01*
X145187786Y-120566971D01*
X145342749Y-120679556D01*
X145353390Y-120687287D01*
X145469500Y-120746448D01*
X145535776Y-120780218D01*
X145535778Y-120780218D01*
X145535781Y-120780220D01*
X145640137Y-120814127D01*
X145730465Y-120843477D01*
X145831557Y-120859488D01*
X145932648Y-120875500D01*
X145932649Y-120875500D01*
X146137351Y-120875500D01*
X146137352Y-120875500D01*
X146339534Y-120843477D01*
X146534219Y-120780220D01*
X146716610Y-120687287D01*
X146809590Y-120619732D01*
X146882213Y-120566971D01*
X146882215Y-120566968D01*
X146882219Y-120566966D01*
X147026966Y-120422219D01*
X147026968Y-120422215D01*
X147026971Y-120422213D01*
X147079732Y-120349590D01*
X147147287Y-120256610D01*
X147240220Y-120074219D01*
X147303477Y-119879534D01*
X147335500Y-119677352D01*
X147335500Y-119472648D01*
X148794500Y-119472648D01*
X148794500Y-119677351D01*
X148826522Y-119879534D01*
X148889781Y-120074223D01*
X148982715Y-120256613D01*
X149103028Y-120422213D01*
X149247786Y-120566971D01*
X149402749Y-120679556D01*
X149413390Y-120687287D01*
X149529500Y-120746448D01*
X149595776Y-120780218D01*
X149595778Y-120780218D01*
X149595781Y-120780220D01*
X149700137Y-120814127D01*
X149790465Y-120843477D01*
X149891557Y-120859488D01*
X149992648Y-120875500D01*
X149992649Y-120875500D01*
X150197351Y-120875500D01*
X150197352Y-120875500D01*
X150399534Y-120843477D01*
X150594219Y-120780220D01*
X150776610Y-120687287D01*
X150869590Y-120619732D01*
X150942213Y-120566971D01*
X150942215Y-120566968D01*
X150942219Y-120566966D01*
X151086966Y-120422219D01*
X151086968Y-120422215D01*
X151086971Y-120422213D01*
X151207284Y-120256614D01*
X151207286Y-120256611D01*
X151207287Y-120256610D01*
X151254516Y-120163917D01*
X151302489Y-120113123D01*
X151370310Y-120096328D01*
X151436445Y-120118865D01*
X151475485Y-120163919D01*
X151522715Y-120256614D01*
X151643028Y-120422213D01*
X151787786Y-120566971D01*
X151942749Y-120679556D01*
X151953390Y-120687287D01*
X152069500Y-120746448D01*
X152135776Y-120780218D01*
X152135778Y-120780218D01*
X152135781Y-120780220D01*
X152240137Y-120814127D01*
X152330465Y-120843477D01*
X152431557Y-120859488D01*
X152532648Y-120875500D01*
X152532649Y-120875500D01*
X152737351Y-120875500D01*
X152737352Y-120875500D01*
X152939534Y-120843477D01*
X153134219Y-120780220D01*
X153316610Y-120687287D01*
X153409590Y-120619732D01*
X153482213Y-120566971D01*
X153482215Y-120566968D01*
X153482219Y-120566966D01*
X153626966Y-120422219D01*
X153626968Y-120422215D01*
X153626971Y-120422213D01*
X153747284Y-120256614D01*
X153747286Y-120256611D01*
X153747287Y-120256610D01*
X153794516Y-120163917D01*
X153842489Y-120113123D01*
X153910310Y-120096328D01*
X153976445Y-120118865D01*
X154015485Y-120163919D01*
X154062715Y-120256614D01*
X154183028Y-120422213D01*
X154327786Y-120566971D01*
X154482749Y-120679556D01*
X154493390Y-120687287D01*
X154609500Y-120746448D01*
X154675776Y-120780218D01*
X154675778Y-120780218D01*
X154675781Y-120780220D01*
X154780137Y-120814127D01*
X154870465Y-120843477D01*
X154971557Y-120859488D01*
X155072648Y-120875500D01*
X155072649Y-120875500D01*
X155277351Y-120875500D01*
X155277352Y-120875500D01*
X155479534Y-120843477D01*
X155674219Y-120780220D01*
X155856610Y-120687287D01*
X155949590Y-120619732D01*
X156022213Y-120566971D01*
X156022215Y-120566968D01*
X156022219Y-120566966D01*
X156166966Y-120422219D01*
X156166968Y-120422215D01*
X156166971Y-120422213D01*
X156287284Y-120256614D01*
X156287286Y-120256611D01*
X156287287Y-120256610D01*
X156334516Y-120163917D01*
X156382489Y-120113123D01*
X156450310Y-120096328D01*
X156516445Y-120118865D01*
X156555485Y-120163919D01*
X156602715Y-120256614D01*
X156723028Y-120422213D01*
X156867786Y-120566971D01*
X157022749Y-120679556D01*
X157033390Y-120687287D01*
X157149500Y-120746448D01*
X157215776Y-120780218D01*
X157215778Y-120780218D01*
X157215781Y-120780220D01*
X157320137Y-120814127D01*
X157410465Y-120843477D01*
X157511557Y-120859488D01*
X157612648Y-120875500D01*
X157612649Y-120875500D01*
X157817351Y-120875500D01*
X157817352Y-120875500D01*
X158019534Y-120843477D01*
X158214219Y-120780220D01*
X158396610Y-120687287D01*
X158489590Y-120619732D01*
X158562213Y-120566971D01*
X158562215Y-120566968D01*
X158562219Y-120566966D01*
X158706966Y-120422219D01*
X158706968Y-120422215D01*
X158706971Y-120422213D01*
X158827284Y-120256614D01*
X158827286Y-120256611D01*
X158827287Y-120256610D01*
X158874516Y-120163917D01*
X158922489Y-120113123D01*
X158990310Y-120096328D01*
X159056445Y-120118865D01*
X159095485Y-120163919D01*
X159142715Y-120256614D01*
X159263028Y-120422213D01*
X159407786Y-120566971D01*
X159562749Y-120679556D01*
X159573390Y-120687287D01*
X159689500Y-120746448D01*
X159755776Y-120780218D01*
X159755778Y-120780218D01*
X159755781Y-120780220D01*
X159860137Y-120814127D01*
X159950465Y-120843477D01*
X160051557Y-120859488D01*
X160152648Y-120875500D01*
X160152649Y-120875500D01*
X160357351Y-120875500D01*
X160357352Y-120875500D01*
X160559534Y-120843477D01*
X160754219Y-120780220D01*
X160936610Y-120687287D01*
X161029590Y-120619732D01*
X161102213Y-120566971D01*
X161102215Y-120566968D01*
X161102219Y-120566966D01*
X161246966Y-120422219D01*
X161246968Y-120422215D01*
X161246971Y-120422213D01*
X161367284Y-120256614D01*
X161367286Y-120256611D01*
X161367287Y-120256610D01*
X161414516Y-120163917D01*
X161462489Y-120113123D01*
X161530310Y-120096328D01*
X161596445Y-120118865D01*
X161635485Y-120163919D01*
X161682715Y-120256614D01*
X161803028Y-120422213D01*
X161947786Y-120566971D01*
X162113388Y-120687286D01*
X162161794Y-120711950D01*
X162212590Y-120759924D01*
X162229500Y-120822435D01*
X162229500Y-125770397D01*
X162209815Y-125837436D01*
X162161800Y-125880879D01*
X162148389Y-125887712D01*
X161982786Y-126008028D01*
X161838028Y-126152786D01*
X161717715Y-126318386D01*
X161624781Y-126500776D01*
X161561522Y-126695465D01*
X161529500Y-126897648D01*
X161529500Y-127102351D01*
X161561522Y-127304534D01*
X161624781Y-127499223D01*
X161676385Y-127600500D01*
X161705408Y-127657461D01*
X161717715Y-127681613D01*
X161838028Y-127847213D01*
X161982786Y-127991971D01*
X162137749Y-128104556D01*
X162148390Y-128112287D01*
X162260349Y-128169333D01*
X162330776Y-128205218D01*
X162330778Y-128205218D01*
X162330781Y-128205220D01*
X162435137Y-128239127D01*
X162525465Y-128268477D01*
X162626557Y-128284488D01*
X162727648Y-128300500D01*
X162727649Y-128300500D01*
X162932351Y-128300500D01*
X162932352Y-128300500D01*
X163134534Y-128268477D01*
X163329219Y-128205220D01*
X163511610Y-128112287D01*
X163629954Y-128026306D01*
X163677213Y-127991971D01*
X163677215Y-127991968D01*
X163677219Y-127991966D01*
X163821966Y-127847219D01*
X163821968Y-127847215D01*
X163821971Y-127847213D01*
X163874732Y-127774590D01*
X163942287Y-127681610D01*
X164035220Y-127499219D01*
X164098477Y-127304534D01*
X164130500Y-127102352D01*
X164130500Y-126897648D01*
X164098477Y-126695466D01*
X164094022Y-126681756D01*
X164035218Y-126500776D01*
X163987255Y-126406645D01*
X163942287Y-126318390D01*
X163934556Y-126307749D01*
X163821971Y-126152786D01*
X163677213Y-126008028D01*
X163511610Y-125887712D01*
X163498200Y-125880879D01*
X163447406Y-125832903D01*
X163430500Y-125770397D01*
X163430500Y-120783968D01*
X163450185Y-120716929D01*
X163481613Y-120683652D01*
X163642219Y-120566966D01*
X163786966Y-120422219D01*
X163786968Y-120422215D01*
X163786971Y-120422213D01*
X163907284Y-120256614D01*
X163907286Y-120256611D01*
X163907287Y-120256610D01*
X163954516Y-120163917D01*
X164002489Y-120113123D01*
X164070310Y-120096328D01*
X164136445Y-120118865D01*
X164175485Y-120163919D01*
X164222715Y-120256614D01*
X164343028Y-120422213D01*
X164487786Y-120566971D01*
X164642749Y-120679556D01*
X164653390Y-120687287D01*
X164769500Y-120746448D01*
X164835776Y-120780218D01*
X164835778Y-120780218D01*
X164835781Y-120780220D01*
X164940137Y-120814127D01*
X165030465Y-120843477D01*
X165131557Y-120859488D01*
X165232648Y-120875500D01*
X165232649Y-120875500D01*
X165437351Y-120875500D01*
X165437352Y-120875500D01*
X165639534Y-120843477D01*
X165834219Y-120780220D01*
X166016610Y-120687287D01*
X166109590Y-120619732D01*
X166182213Y-120566971D01*
X166182215Y-120566968D01*
X166182219Y-120566966D01*
X166326966Y-120422219D01*
X166326968Y-120422215D01*
X166326971Y-120422213D01*
X166447284Y-120256614D01*
X166447286Y-120256611D01*
X166447287Y-120256610D01*
X166494516Y-120163917D01*
X166542489Y-120113123D01*
X166610310Y-120096328D01*
X166676445Y-120118865D01*
X166715485Y-120163919D01*
X166762715Y-120256614D01*
X166883028Y-120422213D01*
X167027786Y-120566971D01*
X167182749Y-120679556D01*
X167193390Y-120687287D01*
X167309500Y-120746448D01*
X167375776Y-120780218D01*
X167375778Y-120780218D01*
X167375781Y-120780220D01*
X167480137Y-120814127D01*
X167570465Y-120843477D01*
X167671557Y-120859488D01*
X167772648Y-120875500D01*
X167772649Y-120875500D01*
X167977351Y-120875500D01*
X167977352Y-120875500D01*
X168179534Y-120843477D01*
X168374219Y-120780220D01*
X168556610Y-120687287D01*
X168649590Y-120619732D01*
X168722213Y-120566971D01*
X168722215Y-120566968D01*
X168722219Y-120566966D01*
X168866966Y-120422219D01*
X168866968Y-120422215D01*
X168866971Y-120422213D01*
X168919732Y-120349590D01*
X168987287Y-120256610D01*
X169080220Y-120074219D01*
X169143477Y-119879534D01*
X169175500Y-119677352D01*
X169175500Y-119472648D01*
X169143477Y-119270466D01*
X169142673Y-119267993D01*
X169080218Y-119075776D01*
X168987419Y-118893650D01*
X168987287Y-118893390D01*
X168979556Y-118882749D01*
X168866971Y-118727786D01*
X168722213Y-118583028D01*
X168556613Y-118462715D01*
X168556612Y-118462714D01*
X168556610Y-118462713D01*
X168499653Y-118433691D01*
X168374223Y-118369781D01*
X168179534Y-118306522D01*
X168004995Y-118278878D01*
X167977352Y-118274500D01*
X167772648Y-118274500D01*
X167748329Y-118278351D01*
X167570465Y-118306522D01*
X167375776Y-118369781D01*
X167193386Y-118462715D01*
X167027786Y-118583028D01*
X166883028Y-118727786D01*
X166762715Y-118893386D01*
X166715485Y-118986080D01*
X166667510Y-119036876D01*
X166599689Y-119053671D01*
X166533554Y-119031134D01*
X166494515Y-118986080D01*
X166447419Y-118893650D01*
X166447287Y-118893390D01*
X166439556Y-118882749D01*
X166326971Y-118727786D01*
X166182213Y-118583028D01*
X166016613Y-118462715D01*
X166016612Y-118462714D01*
X166016610Y-118462713D01*
X165959653Y-118433691D01*
X165834223Y-118369781D01*
X165639534Y-118306522D01*
X165464995Y-118278878D01*
X165437352Y-118274500D01*
X165232648Y-118274500D01*
X165208329Y-118278351D01*
X165030465Y-118306522D01*
X164835776Y-118369781D01*
X164653386Y-118462715D01*
X164487786Y-118583028D01*
X164343028Y-118727786D01*
X164222715Y-118893386D01*
X164175485Y-118986080D01*
X164127510Y-119036876D01*
X164059689Y-119053671D01*
X163993554Y-119031134D01*
X163954515Y-118986080D01*
X163907419Y-118893650D01*
X163907287Y-118893390D01*
X163899556Y-118882749D01*
X163786971Y-118727786D01*
X163642213Y-118583028D01*
X163476613Y-118462715D01*
X163476612Y-118462714D01*
X163476610Y-118462713D01*
X163419653Y-118433691D01*
X163294223Y-118369781D01*
X163099534Y-118306522D01*
X162924995Y-118278878D01*
X162897352Y-118274500D01*
X162692648Y-118274500D01*
X162668329Y-118278351D01*
X162490465Y-118306522D01*
X162295776Y-118369781D01*
X162113386Y-118462715D01*
X161947786Y-118583028D01*
X161803028Y-118727786D01*
X161682715Y-118893386D01*
X161635485Y-118986080D01*
X161587510Y-119036876D01*
X161519689Y-119053671D01*
X161453554Y-119031134D01*
X161414515Y-118986080D01*
X161367419Y-118893650D01*
X161367287Y-118893390D01*
X161359556Y-118882749D01*
X161246971Y-118727786D01*
X161102213Y-118583028D01*
X160936613Y-118462715D01*
X160936612Y-118462714D01*
X160936610Y-118462713D01*
X160879653Y-118433691D01*
X160754223Y-118369781D01*
X160559534Y-118306522D01*
X160384995Y-118278878D01*
X160357352Y-118274500D01*
X160152648Y-118274500D01*
X160128329Y-118278351D01*
X159950465Y-118306522D01*
X159755776Y-118369781D01*
X159573386Y-118462715D01*
X159407786Y-118583028D01*
X159263028Y-118727786D01*
X159142715Y-118893386D01*
X159095485Y-118986080D01*
X159047510Y-119036876D01*
X158979689Y-119053671D01*
X158913554Y-119031134D01*
X158874515Y-118986080D01*
X158827419Y-118893650D01*
X158827287Y-118893390D01*
X158819556Y-118882749D01*
X158706971Y-118727786D01*
X158562213Y-118583028D01*
X158396613Y-118462715D01*
X158396612Y-118462714D01*
X158396610Y-118462713D01*
X158339653Y-118433691D01*
X158214223Y-118369781D01*
X158019534Y-118306522D01*
X157844995Y-118278878D01*
X157817352Y-118274500D01*
X157612648Y-118274500D01*
X157588329Y-118278351D01*
X157410465Y-118306522D01*
X157215776Y-118369781D01*
X157033386Y-118462715D01*
X156867786Y-118583028D01*
X156723028Y-118727786D01*
X156602715Y-118893386D01*
X156555485Y-118986080D01*
X156507510Y-119036876D01*
X156439689Y-119053671D01*
X156373554Y-119031134D01*
X156334515Y-118986080D01*
X156287419Y-118893650D01*
X156287287Y-118893390D01*
X156279556Y-118882749D01*
X156166971Y-118727786D01*
X156022213Y-118583028D01*
X155856613Y-118462715D01*
X155856612Y-118462714D01*
X155856610Y-118462713D01*
X155799653Y-118433691D01*
X155674223Y-118369781D01*
X155479534Y-118306522D01*
X155304995Y-118278878D01*
X155277352Y-118274500D01*
X155072648Y-118274500D01*
X155048329Y-118278351D01*
X154870465Y-118306522D01*
X154675776Y-118369781D01*
X154493386Y-118462715D01*
X154327786Y-118583028D01*
X154183028Y-118727786D01*
X154062715Y-118893386D01*
X154015485Y-118986080D01*
X153967510Y-119036876D01*
X153899689Y-119053671D01*
X153833554Y-119031134D01*
X153794515Y-118986080D01*
X153747419Y-118893650D01*
X153747287Y-118893390D01*
X153739556Y-118882749D01*
X153626971Y-118727786D01*
X153482213Y-118583028D01*
X153316613Y-118462715D01*
X153316612Y-118462714D01*
X153316610Y-118462713D01*
X153259653Y-118433691D01*
X153134223Y-118369781D01*
X152939534Y-118306522D01*
X152764995Y-118278878D01*
X152737352Y-118274500D01*
X152532648Y-118274500D01*
X152508329Y-118278351D01*
X152330465Y-118306522D01*
X152135776Y-118369781D01*
X151953386Y-118462715D01*
X151787786Y-118583028D01*
X151643028Y-118727786D01*
X151522715Y-118893386D01*
X151475485Y-118986080D01*
X151427510Y-119036876D01*
X151359689Y-119053671D01*
X151293554Y-119031134D01*
X151254515Y-118986080D01*
X151207419Y-118893650D01*
X151207287Y-118893390D01*
X151199556Y-118882749D01*
X151086971Y-118727786D01*
X150942213Y-118583028D01*
X150776613Y-118462715D01*
X150776612Y-118462714D01*
X150776610Y-118462713D01*
X150719653Y-118433691D01*
X150594223Y-118369781D01*
X150399534Y-118306522D01*
X150224995Y-118278878D01*
X150197352Y-118274500D01*
X149992648Y-118274500D01*
X149968329Y-118278351D01*
X149790465Y-118306522D01*
X149595776Y-118369781D01*
X149413386Y-118462715D01*
X149247786Y-118583028D01*
X149103028Y-118727786D01*
X148982715Y-118893386D01*
X148889781Y-119075776D01*
X148826522Y-119270465D01*
X148794500Y-119472648D01*
X147335500Y-119472648D01*
X147303477Y-119270466D01*
X147302673Y-119267993D01*
X147240218Y-119075776D01*
X147147419Y-118893650D01*
X147147287Y-118893390D01*
X147139556Y-118882749D01*
X147026971Y-118727786D01*
X146882213Y-118583028D01*
X146716613Y-118462715D01*
X146716612Y-118462714D01*
X146716610Y-118462713D01*
X146659653Y-118433691D01*
X146534223Y-118369781D01*
X146339534Y-118306522D01*
X146164995Y-118278878D01*
X146137352Y-118274500D01*
X145932648Y-118274500D01*
X145908329Y-118278351D01*
X145730465Y-118306522D01*
X145535776Y-118369781D01*
X145353386Y-118462715D01*
X145187786Y-118583028D01*
X145043028Y-118727786D01*
X144922715Y-118893386D01*
X144875485Y-118986080D01*
X144827510Y-119036876D01*
X144759689Y-119053671D01*
X144693554Y-119031134D01*
X144654515Y-118986080D01*
X144607419Y-118893650D01*
X144607287Y-118893390D01*
X144599556Y-118882749D01*
X144486971Y-118727786D01*
X144342213Y-118583028D01*
X144176613Y-118462715D01*
X144176612Y-118462714D01*
X144176610Y-118462713D01*
X144119653Y-118433691D01*
X143994223Y-118369781D01*
X143799534Y-118306522D01*
X143624995Y-118278878D01*
X143597352Y-118274500D01*
X143392648Y-118274500D01*
X143368329Y-118278351D01*
X143190465Y-118306522D01*
X142995776Y-118369781D01*
X142813386Y-118462715D01*
X142647786Y-118583028D01*
X142503028Y-118727786D01*
X142382715Y-118893386D01*
X142335485Y-118986080D01*
X142287510Y-119036876D01*
X142219689Y-119053671D01*
X142153554Y-119031134D01*
X142114515Y-118986080D01*
X142067419Y-118893650D01*
X142067287Y-118893390D01*
X142059556Y-118882749D01*
X141946971Y-118727786D01*
X141802213Y-118583028D01*
X141636613Y-118462715D01*
X141636612Y-118462714D01*
X141636610Y-118462713D01*
X141579653Y-118433691D01*
X141454223Y-118369781D01*
X141259534Y-118306522D01*
X141084995Y-118278878D01*
X141057352Y-118274500D01*
X140852648Y-118274500D01*
X140828329Y-118278351D01*
X140650465Y-118306522D01*
X140455776Y-118369781D01*
X140273386Y-118462715D01*
X140107786Y-118583028D01*
X139963028Y-118727786D01*
X139842715Y-118893386D01*
X139795485Y-118986080D01*
X139747510Y-119036876D01*
X139679689Y-119053671D01*
X139613554Y-119031134D01*
X139574515Y-118986080D01*
X139527419Y-118893650D01*
X139527287Y-118893390D01*
X139519556Y-118882749D01*
X139406971Y-118727786D01*
X139262213Y-118583028D01*
X139096613Y-118462715D01*
X139096612Y-118462714D01*
X139096610Y-118462713D01*
X139039653Y-118433691D01*
X138914223Y-118369781D01*
X138719534Y-118306522D01*
X138544995Y-118278878D01*
X138517352Y-118274500D01*
X138312648Y-118274500D01*
X138288329Y-118278351D01*
X138110465Y-118306522D01*
X137915776Y-118369781D01*
X137733386Y-118462715D01*
X137567786Y-118583028D01*
X137423028Y-118727786D01*
X137302715Y-118893386D01*
X137255485Y-118986080D01*
X137207510Y-119036876D01*
X137139689Y-119053671D01*
X137073554Y-119031134D01*
X137034515Y-118986080D01*
X136987419Y-118893650D01*
X136987287Y-118893390D01*
X136979556Y-118882749D01*
X136866971Y-118727786D01*
X136722213Y-118583028D01*
X136556613Y-118462715D01*
X136556612Y-118462714D01*
X136556610Y-118462713D01*
X136499653Y-118433691D01*
X136374223Y-118369781D01*
X136179534Y-118306522D01*
X136004995Y-118278878D01*
X135977352Y-118274500D01*
X135772648Y-118274500D01*
X135748329Y-118278351D01*
X135570465Y-118306522D01*
X135375776Y-118369781D01*
X135193386Y-118462715D01*
X135027786Y-118583028D01*
X134883028Y-118727786D01*
X134762715Y-118893386D01*
X134715485Y-118986080D01*
X134667510Y-119036876D01*
X134599689Y-119053671D01*
X134533554Y-119031134D01*
X134494515Y-118986080D01*
X134447419Y-118893650D01*
X134447287Y-118893390D01*
X134439556Y-118882749D01*
X134326971Y-118727786D01*
X134182213Y-118583028D01*
X134016613Y-118462715D01*
X134016612Y-118462714D01*
X134016610Y-118462713D01*
X133959653Y-118433691D01*
X133834223Y-118369781D01*
X133639534Y-118306522D01*
X133464995Y-118278878D01*
X133437352Y-118274500D01*
X133232648Y-118274500D01*
X133208329Y-118278351D01*
X133030465Y-118306522D01*
X132835776Y-118369781D01*
X132653386Y-118462715D01*
X132487786Y-118583028D01*
X132343028Y-118727786D01*
X132222713Y-118893388D01*
X132175203Y-118986630D01*
X132127228Y-119037426D01*
X132059407Y-119054220D01*
X131993272Y-119031682D01*
X131954234Y-118986628D01*
X131906861Y-118893652D01*
X131786582Y-118728105D01*
X131786582Y-118728104D01*
X131641895Y-118583417D01*
X131476349Y-118463140D01*
X131294029Y-118370244D01*
X131099413Y-118307009D01*
X131045000Y-118298390D01*
X131045000Y-119141988D01*
X130987993Y-119109075D01*
X130860826Y-119075000D01*
X130729174Y-119075000D01*
X130602007Y-119109075D01*
X130545000Y-119141988D01*
X130545000Y-118298390D01*
X130490586Y-118307009D01*
X130295970Y-118370244D01*
X130113650Y-118463140D01*
X129948105Y-118583417D01*
X129948104Y-118583417D01*
X129803417Y-118728104D01*
X129803417Y-118728105D01*
X129683140Y-118893650D01*
X129635765Y-118986629D01*
X129587790Y-119037425D01*
X129519969Y-119054220D01*
X129453834Y-119031682D01*
X129414795Y-118986629D01*
X129367419Y-118893650D01*
X129367287Y-118893390D01*
X129359556Y-118882749D01*
X129246971Y-118727786D01*
X129102213Y-118583028D01*
X128936613Y-118462715D01*
X128936612Y-118462714D01*
X128936610Y-118462713D01*
X128879653Y-118433691D01*
X128754223Y-118369781D01*
X128559534Y-118306522D01*
X128384995Y-118278878D01*
X128357352Y-118274500D01*
X128152648Y-118274500D01*
X128128329Y-118278351D01*
X127950465Y-118306522D01*
X127755776Y-118369781D01*
X127573386Y-118462715D01*
X127407786Y-118583028D01*
X127263028Y-118727786D01*
X127142715Y-118893386D01*
X127095485Y-118986080D01*
X127047510Y-119036876D01*
X126979689Y-119053671D01*
X126913554Y-119031134D01*
X126874515Y-118986080D01*
X126827419Y-118893650D01*
X126827287Y-118893390D01*
X126819556Y-118882749D01*
X126706971Y-118727786D01*
X126562213Y-118583028D01*
X126396613Y-118462715D01*
X126396612Y-118462714D01*
X126396610Y-118462713D01*
X126339653Y-118433691D01*
X126214223Y-118369781D01*
X126019534Y-118306522D01*
X125844995Y-118278878D01*
X125817352Y-118274500D01*
X125612648Y-118274500D01*
X125588329Y-118278351D01*
X125410465Y-118306522D01*
X125215776Y-118369781D01*
X125033386Y-118462715D01*
X124867786Y-118583028D01*
X124723028Y-118727786D01*
X124602715Y-118893386D01*
X124555485Y-118986080D01*
X124507510Y-119036876D01*
X124439689Y-119053671D01*
X124373554Y-119031134D01*
X124334515Y-118986080D01*
X124287419Y-118893650D01*
X124287287Y-118893390D01*
X124279556Y-118882749D01*
X124166971Y-118727786D01*
X124022213Y-118583028D01*
X123856613Y-118462715D01*
X123856612Y-118462714D01*
X123856610Y-118462713D01*
X123799653Y-118433691D01*
X123674223Y-118369781D01*
X123479534Y-118306522D01*
X123304995Y-118278878D01*
X123277352Y-118274500D01*
X123072648Y-118274500D01*
X123048329Y-118278351D01*
X122870465Y-118306522D01*
X122675776Y-118369781D01*
X122493386Y-118462715D01*
X122327786Y-118583028D01*
X122183028Y-118727786D01*
X122062715Y-118893386D01*
X121969781Y-119075776D01*
X121906522Y-119270465D01*
X121874500Y-119472648D01*
X96500500Y-119472648D01*
X96500500Y-61397648D01*
X107039500Y-61397648D01*
X107039500Y-61602351D01*
X107071522Y-61804534D01*
X107134781Y-61999223D01*
X107227715Y-62181613D01*
X107348028Y-62347213D01*
X107492786Y-62491971D01*
X107647749Y-62604556D01*
X107658390Y-62612287D01*
X107774607Y-62671503D01*
X107840776Y-62705218D01*
X107840778Y-62705218D01*
X107840781Y-62705220D01*
X107945137Y-62739127D01*
X108035465Y-62768477D01*
X108136557Y-62784488D01*
X108237648Y-62800500D01*
X108357770Y-62800500D01*
X108424809Y-62820185D01*
X108445451Y-62836819D01*
X110191586Y-64582954D01*
X110218651Y-64601037D01*
X110265270Y-64632186D01*
X110314505Y-64665084D01*
X110314506Y-64665084D01*
X110314507Y-64665085D01*
X110314509Y-64665086D01*
X110451082Y-64721656D01*
X110451087Y-64721658D01*
X110451091Y-64721658D01*
X110451092Y-64721659D01*
X110596079Y-64750500D01*
X110596082Y-64750500D01*
X110596083Y-64750500D01*
X110743917Y-64750500D01*
X134797770Y-64750500D01*
X134864809Y-64770185D01*
X134885451Y-64786819D01*
X137427689Y-67329057D01*
X139902699Y-69804066D01*
X139936184Y-69865389D01*
X139931200Y-69935081D01*
X139889328Y-69991014D01*
X139834416Y-70014220D01*
X139630465Y-70046522D01*
X139435776Y-70109781D01*
X139253386Y-70202715D01*
X139087786Y-70323028D01*
X138943028Y-70467786D01*
X138822715Y-70633386D01*
X138775485Y-70726080D01*
X138727510Y-70776876D01*
X138659689Y-70793671D01*
X138593554Y-70771134D01*
X138554515Y-70726080D01*
X138507419Y-70633650D01*
X138507287Y-70633390D01*
X138499556Y-70622749D01*
X138386971Y-70467786D01*
X138242213Y-70323028D01*
X138076613Y-70202715D01*
X138076612Y-70202714D01*
X138076610Y-70202713D01*
X138019653Y-70173691D01*
X137894223Y-70109781D01*
X137699534Y-70046522D01*
X137524995Y-70018878D01*
X137497352Y-70014500D01*
X137292648Y-70014500D01*
X137268329Y-70018351D01*
X137090465Y-70046522D01*
X136895776Y-70109781D01*
X136713386Y-70202715D01*
X136547786Y-70323028D01*
X136403028Y-70467786D01*
X136282715Y-70633386D01*
X136235485Y-70726080D01*
X136187510Y-70776876D01*
X136119689Y-70793671D01*
X136053554Y-70771134D01*
X136014515Y-70726080D01*
X135967419Y-70633650D01*
X135967287Y-70633390D01*
X135959556Y-70622749D01*
X135846971Y-70467786D01*
X135702213Y-70323028D01*
X135536613Y-70202715D01*
X135536612Y-70202714D01*
X135536610Y-70202713D01*
X135479653Y-70173691D01*
X135354223Y-70109781D01*
X135159534Y-70046522D01*
X134984995Y-70018878D01*
X134957352Y-70014500D01*
X134752648Y-70014500D01*
X134728329Y-70018351D01*
X134550465Y-70046522D01*
X134355776Y-70109781D01*
X134173386Y-70202715D01*
X134007786Y-70323028D01*
X133863032Y-70467782D01*
X133836668Y-70504070D01*
X133781338Y-70546735D01*
X133711724Y-70552714D01*
X133649929Y-70520108D01*
X133615572Y-70459269D01*
X133613060Y-70444438D01*
X133612640Y-70440533D01*
X133609091Y-70407517D01*
X133558796Y-70272669D01*
X133558795Y-70272668D01*
X133558793Y-70272664D01*
X133472547Y-70157455D01*
X133472544Y-70157452D01*
X133357335Y-70071206D01*
X133357328Y-70071202D01*
X133222482Y-70020908D01*
X133222483Y-70020908D01*
X133162883Y-70014501D01*
X133162881Y-70014500D01*
X133162873Y-70014500D01*
X133162864Y-70014500D01*
X131467129Y-70014500D01*
X131467123Y-70014501D01*
X131407516Y-70020908D01*
X131272671Y-70071202D01*
X131272664Y-70071206D01*
X131157455Y-70157452D01*
X131157452Y-70157455D01*
X131071206Y-70272664D01*
X131071202Y-70272671D01*
X131020908Y-70407517D01*
X131014501Y-70467116D01*
X131014500Y-70467135D01*
X131014500Y-72162870D01*
X131014501Y-72162876D01*
X131020908Y-72222483D01*
X131071202Y-72357328D01*
X131071206Y-72357335D01*
X131157452Y-72472544D01*
X131157455Y-72472547D01*
X131272664Y-72558793D01*
X131272671Y-72558797D01*
X131407517Y-72609091D01*
X131407516Y-72609091D01*
X131414444Y-72609835D01*
X131467127Y-72615500D01*
X133162872Y-72615499D01*
X133222483Y-72609091D01*
X133357331Y-72558796D01*
X133472546Y-72472546D01*
X133558796Y-72357331D01*
X133609091Y-72222483D01*
X133613061Y-72185556D01*
X133639796Y-72121011D01*
X133697188Y-72081161D01*
X133767013Y-72078666D01*
X133827102Y-72114317D01*
X133836667Y-72125929D01*
X133863032Y-72162217D01*
X134007786Y-72306971D01*
X134162749Y-72419556D01*
X134173390Y-72427287D01*
X134262212Y-72472544D01*
X134355776Y-72520218D01*
X134355778Y-72520218D01*
X134355781Y-72520220D01*
X134460137Y-72554127D01*
X134550465Y-72583477D01*
X134651557Y-72599488D01*
X134752648Y-72615500D01*
X134752649Y-72615500D01*
X134957351Y-72615500D01*
X134957352Y-72615500D01*
X135159534Y-72583477D01*
X135354219Y-72520220D01*
X135536610Y-72427287D01*
X135632901Y-72357328D01*
X135702213Y-72306971D01*
X135702215Y-72306968D01*
X135702219Y-72306966D01*
X135846966Y-72162219D01*
X135846968Y-72162215D01*
X135846971Y-72162213D01*
X135967284Y-71996614D01*
X135967286Y-71996611D01*
X135967287Y-71996610D01*
X136014516Y-71903917D01*
X136062489Y-71853123D01*
X136130310Y-71836328D01*
X136196445Y-71858865D01*
X136235485Y-71903919D01*
X136282715Y-71996614D01*
X136403028Y-72162213D01*
X136547786Y-72306971D01*
X136702749Y-72419556D01*
X136713390Y-72427287D01*
X136802212Y-72472544D01*
X136895776Y-72520218D01*
X136895778Y-72520218D01*
X136895781Y-72520220D01*
X137000137Y-72554127D01*
X137090465Y-72583477D01*
X137191557Y-72599488D01*
X137292648Y-72615500D01*
X137292649Y-72615500D01*
X137497351Y-72615500D01*
X137497352Y-72615500D01*
X137699534Y-72583477D01*
X137894219Y-72520220D01*
X138076610Y-72427287D01*
X138172901Y-72357328D01*
X138242213Y-72306971D01*
X138242215Y-72306968D01*
X138242219Y-72306966D01*
X138386966Y-72162219D01*
X138386968Y-72162215D01*
X138386971Y-72162213D01*
X138507284Y-71996614D01*
X138507286Y-71996611D01*
X138507287Y-71996610D01*
X138554516Y-71903917D01*
X138602489Y-71853123D01*
X138670310Y-71836328D01*
X138736445Y-71858865D01*
X138775485Y-71903919D01*
X138822715Y-71996614D01*
X138943028Y-72162213D01*
X139087786Y-72306971D01*
X139242749Y-72419556D01*
X139253390Y-72427287D01*
X139342212Y-72472544D01*
X139435776Y-72520218D01*
X139435778Y-72520218D01*
X139435781Y-72520220D01*
X139540137Y-72554127D01*
X139630465Y-72583477D01*
X139731557Y-72599488D01*
X139832648Y-72615500D01*
X139832649Y-72615500D01*
X140037351Y-72615500D01*
X140037352Y-72615500D01*
X140239534Y-72583477D01*
X140434219Y-72520220D01*
X140616610Y-72427287D01*
X140712901Y-72357328D01*
X140782213Y-72306971D01*
X140782215Y-72306968D01*
X140782219Y-72306966D01*
X140926966Y-72162219D01*
X140926968Y-72162215D01*
X140926971Y-72162213D01*
X141047284Y-71996614D01*
X141047286Y-71996611D01*
X141047287Y-71996610D01*
X141094516Y-71903917D01*
X141142489Y-71853123D01*
X141210310Y-71836328D01*
X141276445Y-71858865D01*
X141315485Y-71903919D01*
X141362715Y-71996614D01*
X141483028Y-72162213D01*
X141627786Y-72306971D01*
X141782749Y-72419556D01*
X141793390Y-72427287D01*
X141882212Y-72472544D01*
X141975776Y-72520218D01*
X141975778Y-72520218D01*
X141975781Y-72520220D01*
X142080137Y-72554127D01*
X142170465Y-72583477D01*
X142271557Y-72599488D01*
X142372648Y-72615500D01*
X142372649Y-72615500D01*
X142577351Y-72615500D01*
X142577352Y-72615500D01*
X142779534Y-72583477D01*
X142974219Y-72520220D01*
X143156610Y-72427287D01*
X143252901Y-72357328D01*
X143322213Y-72306971D01*
X143322215Y-72306968D01*
X143322219Y-72306966D01*
X143466966Y-72162219D01*
X143466968Y-72162215D01*
X143466971Y-72162213D01*
X143587284Y-71996614D01*
X143587286Y-71996611D01*
X143587287Y-71996610D01*
X143634795Y-71903369D01*
X143682770Y-71852574D01*
X143750591Y-71835779D01*
X143816725Y-71858316D01*
X143855765Y-71903370D01*
X143903140Y-71996349D01*
X144023417Y-72161894D01*
X144023417Y-72161895D01*
X144168104Y-72306582D01*
X144333650Y-72426859D01*
X144515968Y-72519754D01*
X144710578Y-72582988D01*
X144765000Y-72591607D01*
X144765000Y-71748012D01*
X144822007Y-71780925D01*
X144949174Y-71815000D01*
X145080826Y-71815000D01*
X145207993Y-71780925D01*
X145265000Y-71748012D01*
X145265000Y-72591606D01*
X145319421Y-72582988D01*
X145514031Y-72519754D01*
X145696349Y-72426859D01*
X145861894Y-72306582D01*
X145861895Y-72306582D01*
X146006582Y-72161895D01*
X146006582Y-72161894D01*
X146126859Y-71996349D01*
X146174515Y-71902820D01*
X146222489Y-71852024D01*
X146290310Y-71835229D01*
X146356445Y-71857766D01*
X146395485Y-71902820D01*
X146443140Y-71996349D01*
X146563417Y-72161894D01*
X146563417Y-72161895D01*
X146708104Y-72306582D01*
X146873650Y-72426859D01*
X147055968Y-72519754D01*
X147250578Y-72582988D01*
X147305000Y-72591607D01*
X147305000Y-71748012D01*
X147362007Y-71780925D01*
X147489174Y-71815000D01*
X147620826Y-71815000D01*
X147747993Y-71780925D01*
X147805000Y-71748012D01*
X147805000Y-72591606D01*
X147859421Y-72582988D01*
X148054031Y-72519754D01*
X148236349Y-72426859D01*
X148401894Y-72306582D01*
X148401895Y-72306582D01*
X148546582Y-72161895D01*
X148546582Y-72161894D01*
X148666861Y-71996347D01*
X148714234Y-71903371D01*
X148762208Y-71852575D01*
X148830028Y-71835779D01*
X148896164Y-71858316D01*
X148935203Y-71903369D01*
X148982713Y-71996611D01*
X149103028Y-72162213D01*
X149247786Y-72306971D01*
X149402749Y-72419556D01*
X149413390Y-72427287D01*
X149502212Y-72472544D01*
X149595776Y-72520218D01*
X149595778Y-72520218D01*
X149595781Y-72520220D01*
X149700137Y-72554127D01*
X149790465Y-72583477D01*
X149891557Y-72599488D01*
X149992648Y-72615500D01*
X149992649Y-72615500D01*
X150197351Y-72615500D01*
X150197352Y-72615500D01*
X150399534Y-72583477D01*
X150594219Y-72520220D01*
X150776610Y-72427287D01*
X150872901Y-72357328D01*
X150942213Y-72306971D01*
X150942215Y-72306968D01*
X150942219Y-72306966D01*
X151086966Y-72162219D01*
X151086968Y-72162215D01*
X151086971Y-72162213D01*
X151147670Y-72078666D01*
X151207287Y-71996610D01*
X151300220Y-71814219D01*
X151363477Y-71619534D01*
X151395500Y-71417352D01*
X151395500Y-71212648D01*
X151376798Y-71094570D01*
X151363477Y-71010465D01*
X151300218Y-70815776D01*
X151207419Y-70633650D01*
X151207287Y-70633390D01*
X151199556Y-70622749D01*
X151086971Y-70467786D01*
X150942213Y-70323028D01*
X150776613Y-70202715D01*
X150776612Y-70202714D01*
X150776610Y-70202713D01*
X150719653Y-70173691D01*
X150594223Y-70109781D01*
X150399534Y-70046522D01*
X150224995Y-70018878D01*
X150197352Y-70014500D01*
X149992648Y-70014500D01*
X149936972Y-70023318D01*
X149867679Y-70014363D01*
X149829894Y-69988526D01*
X144346987Y-64505618D01*
X143796369Y-63955000D01*
X156023513Y-63955000D01*
X157153712Y-63955000D01*
X157104085Y-64040956D01*
X157075122Y-64149048D01*
X157075122Y-64260952D01*
X157104085Y-64369044D01*
X157153712Y-64455000D01*
X156023513Y-64455000D01*
X156032131Y-64509413D01*
X156095366Y-64704029D01*
X156188262Y-64886349D01*
X156308539Y-65051894D01*
X156308539Y-65051895D01*
X156453226Y-65196582D01*
X156618772Y-65316859D01*
X156801090Y-65409755D01*
X156995704Y-65472990D01*
X157197805Y-65505000D01*
X157250122Y-65505000D01*
X157250122Y-64551409D01*
X157336078Y-64601037D01*
X157444170Y-64630000D01*
X157556074Y-64630000D01*
X157664166Y-64601037D01*
X157750122Y-64551409D01*
X157750122Y-65505000D01*
X157802439Y-65505000D01*
X158004539Y-65472990D01*
X158199153Y-65409755D01*
X158381471Y-65316859D01*
X158547016Y-65196582D01*
X158547017Y-65196582D01*
X158691704Y-65051895D01*
X158691704Y-65051894D01*
X158811981Y-64886349D01*
X158904877Y-64704029D01*
X158968112Y-64509413D01*
X158976731Y-64455000D01*
X157846532Y-64455000D01*
X157896159Y-64369044D01*
X157925122Y-64260952D01*
X157925122Y-64149048D01*
X157896159Y-64040956D01*
X157846532Y-63955000D01*
X158976731Y-63955000D01*
X158968112Y-63900586D01*
X158904877Y-63705970D01*
X158811981Y-63523650D01*
X158691704Y-63358105D01*
X158691704Y-63358104D01*
X158547017Y-63213417D01*
X158381471Y-63093140D01*
X158199153Y-63000244D01*
X158004539Y-62937009D01*
X157802439Y-62905000D01*
X157750122Y-62905000D01*
X157750122Y-63858590D01*
X157664166Y-63808963D01*
X157556074Y-63780000D01*
X157444170Y-63780000D01*
X157336078Y-63808963D01*
X157250122Y-63858590D01*
X157250122Y-62905000D01*
X157197805Y-62905000D01*
X156995704Y-62937009D01*
X156801090Y-63000244D01*
X156618772Y-63093140D01*
X156453227Y-63213417D01*
X156453226Y-63213417D01*
X156308539Y-63358104D01*
X156308539Y-63358105D01*
X156188262Y-63523650D01*
X156095366Y-63705970D01*
X156032131Y-63900586D01*
X156023513Y-63955000D01*
X143796369Y-63955000D01*
X138258421Y-58417052D01*
X138258414Y-58417046D01*
X138184729Y-58367812D01*
X138184729Y-58367813D01*
X138135491Y-58334913D01*
X137998917Y-58278343D01*
X137998907Y-58278340D01*
X137853920Y-58249500D01*
X137853918Y-58249500D01*
X137302190Y-58249500D01*
X137235151Y-58229815D01*
X137189396Y-58177011D01*
X137179452Y-58107853D01*
X137208477Y-58044297D01*
X137254738Y-58010939D01*
X137379172Y-57959397D01*
X137379172Y-57959396D01*
X137379179Y-57959394D01*
X137510289Y-57871789D01*
X137621789Y-57760289D01*
X137709394Y-57629179D01*
X137719191Y-57605524D01*
X137746069Y-57565297D01*
X150819549Y-44491819D01*
X150880872Y-44458334D01*
X150907230Y-44455500D01*
X155877771Y-44455500D01*
X155944810Y-44475185D01*
X155990565Y-44527989D01*
X156001061Y-44566248D01*
X156006030Y-44612483D01*
X156056324Y-44747328D01*
X156056328Y-44747335D01*
X156142574Y-44862544D01*
X156142577Y-44862547D01*
X156257786Y-44948793D01*
X156257793Y-44948797D01*
X156392639Y-44999091D01*
X156392638Y-44999091D01*
X156399566Y-44999835D01*
X156452249Y-45005500D01*
X158547994Y-45005499D01*
X158607605Y-44999091D01*
X158742453Y-44948796D01*
X158857668Y-44862546D01*
X158943918Y-44747331D01*
X158994213Y-44612483D01*
X159000622Y-44552873D01*
X159000621Y-42857128D01*
X158994213Y-42797517D01*
X158943918Y-42662669D01*
X158943917Y-42662668D01*
X158943915Y-42662664D01*
X158857669Y-42547455D01*
X158857666Y-42547452D01*
X158742457Y-42461206D01*
X158742450Y-42461202D01*
X158607604Y-42410908D01*
X158607605Y-42410908D01*
X158548005Y-42404501D01*
X158548003Y-42404500D01*
X158547995Y-42404500D01*
X158547986Y-42404500D01*
X156452251Y-42404500D01*
X156452245Y-42404501D01*
X156392638Y-42410908D01*
X156257793Y-42461202D01*
X156257786Y-42461206D01*
X156142577Y-42547452D01*
X156142574Y-42547455D01*
X156056328Y-42662664D01*
X156056324Y-42662671D01*
X156006032Y-42797513D01*
X156006031Y-42797517D01*
X156001059Y-42843757D01*
X155974323Y-42908306D01*
X155916931Y-42948154D01*
X155877771Y-42954500D01*
X150471076Y-42954500D01*
X150442242Y-42960234D01*
X150442243Y-42960235D01*
X150326093Y-42983339D01*
X150326083Y-42983342D01*
X150246081Y-43016479D01*
X150246082Y-43016480D01*
X150189502Y-43039917D01*
X150140269Y-43072813D01*
X150066588Y-43122044D01*
X150066580Y-43122050D01*
X136684703Y-56503927D01*
X136644480Y-56530805D01*
X136620819Y-56540606D01*
X136620818Y-56540607D01*
X136489715Y-56628207D01*
X136489707Y-56628213D01*
X136378213Y-56739707D01*
X136378210Y-56739711D01*
X136290609Y-56870814D01*
X136290602Y-56870827D01*
X136230264Y-57016498D01*
X136230261Y-57016510D01*
X136199500Y-57171153D01*
X136199500Y-57328846D01*
X136230261Y-57483489D01*
X136230264Y-57483501D01*
X136290602Y-57629172D01*
X136290609Y-57629185D01*
X136378210Y-57760288D01*
X136378213Y-57760292D01*
X136489707Y-57871786D01*
X136489711Y-57871789D01*
X136620814Y-57959390D01*
X136620827Y-57959397D01*
X136745262Y-58010939D01*
X136799666Y-58054779D01*
X136821731Y-58121074D01*
X136804452Y-58188773D01*
X136753315Y-58236384D01*
X136697810Y-58249500D01*
X134554604Y-58249500D01*
X134507155Y-58240062D01*
X134483497Y-58230263D01*
X134483493Y-58230262D01*
X134483488Y-58230260D01*
X134328845Y-58199500D01*
X134328842Y-58199500D01*
X134171158Y-58199500D01*
X134171155Y-58199500D01*
X134016510Y-58230261D01*
X134016498Y-58230264D01*
X133870827Y-58290602D01*
X133870814Y-58290609D01*
X133739711Y-58378210D01*
X133739707Y-58378213D01*
X133628213Y-58489707D01*
X133628210Y-58489711D01*
X133540609Y-58620814D01*
X133540602Y-58620827D01*
X133480264Y-58766498D01*
X133480261Y-58766510D01*
X133449500Y-58921153D01*
X133449500Y-59078846D01*
X133480261Y-59233489D01*
X133480264Y-59233501D01*
X133540602Y-59379172D01*
X133540609Y-59379185D01*
X133628210Y-59510288D01*
X133628213Y-59510292D01*
X133739707Y-59621786D01*
X133739711Y-59621789D01*
X133870814Y-59709390D01*
X133870827Y-59709397D01*
X133970060Y-59750500D01*
X134016503Y-59769737D01*
X134171153Y-59800499D01*
X134171156Y-59800500D01*
X134171158Y-59800500D01*
X134328844Y-59800500D01*
X134328845Y-59800499D01*
X134405152Y-59785320D01*
X134483488Y-59769739D01*
X134483489Y-59769738D01*
X134483497Y-59769737D01*
X134507155Y-59759937D01*
X134554604Y-59750500D01*
X137417770Y-59750500D01*
X137484809Y-59770185D01*
X137505451Y-59786819D01*
X147768681Y-70050049D01*
X147802166Y-70111372D01*
X147805000Y-70137730D01*
X147805000Y-70881988D01*
X147747993Y-70849075D01*
X147620826Y-70815000D01*
X147489174Y-70815000D01*
X147362007Y-70849075D01*
X147305000Y-70881988D01*
X147305000Y-70038390D01*
X147250586Y-70047009D01*
X147055970Y-70110244D01*
X146873650Y-70203140D01*
X146708105Y-70323417D01*
X146708104Y-70323417D01*
X146563417Y-70468104D01*
X146563417Y-70468105D01*
X146443140Y-70633650D01*
X146395485Y-70727179D01*
X146347510Y-70777975D01*
X146279689Y-70794770D01*
X146213554Y-70772232D01*
X146174515Y-70727179D01*
X146126859Y-70633650D01*
X146006582Y-70468105D01*
X146006582Y-70468104D01*
X145861895Y-70323417D01*
X145696349Y-70203140D01*
X145514029Y-70110244D01*
X145319413Y-70047009D01*
X145265000Y-70038390D01*
X145265000Y-70881988D01*
X145207993Y-70849075D01*
X145080826Y-70815000D01*
X144949174Y-70815000D01*
X144822007Y-70849075D01*
X144765000Y-70881988D01*
X144765000Y-70038390D01*
X144710586Y-70047009D01*
X144515970Y-70110244D01*
X144333650Y-70203140D01*
X144168105Y-70323417D01*
X144168104Y-70323417D01*
X144023417Y-70468104D01*
X144023417Y-70468105D01*
X143903140Y-70633650D01*
X143855765Y-70726629D01*
X143807790Y-70777425D01*
X143739969Y-70794220D01*
X143673834Y-70771682D01*
X143634795Y-70726629D01*
X143587419Y-70633650D01*
X143587287Y-70633390D01*
X143579556Y-70622749D01*
X143466971Y-70467786D01*
X143322213Y-70323028D01*
X143156613Y-70202715D01*
X143156612Y-70202714D01*
X143156610Y-70202713D01*
X143099653Y-70173691D01*
X142974223Y-70109781D01*
X142779534Y-70046522D01*
X142604995Y-70018878D01*
X142577352Y-70014500D01*
X142372648Y-70014500D01*
X142316971Y-70023318D01*
X142247678Y-70014363D01*
X142209893Y-69988526D01*
X135638421Y-63417052D01*
X135638414Y-63417046D01*
X135564729Y-63367812D01*
X135564729Y-63367813D01*
X135515491Y-63334913D01*
X135378917Y-63278343D01*
X135378907Y-63278340D01*
X135233920Y-63249500D01*
X135233918Y-63249500D01*
X111032230Y-63249500D01*
X110965191Y-63229815D01*
X110944549Y-63213181D01*
X109643229Y-61911861D01*
X109609744Y-61850538D01*
X109608437Y-61804781D01*
X109608475Y-61804539D01*
X109608477Y-61804534D01*
X109640500Y-61602352D01*
X109640500Y-61397648D01*
X109608477Y-61195466D01*
X109545220Y-61000781D01*
X109545218Y-61000778D01*
X109545218Y-61000776D01*
X109511503Y-60934607D01*
X109452287Y-60818390D01*
X109444556Y-60807749D01*
X109331971Y-60652786D01*
X109187213Y-60508028D01*
X109021613Y-60387715D01*
X109021612Y-60387714D01*
X109021610Y-60387713D01*
X108964653Y-60358691D01*
X108839223Y-60294781D01*
X108644534Y-60231522D01*
X108469995Y-60203878D01*
X108442352Y-60199500D01*
X108237648Y-60199500D01*
X108213329Y-60203351D01*
X108035465Y-60231522D01*
X107840776Y-60294781D01*
X107658386Y-60387715D01*
X107492786Y-60508028D01*
X107348028Y-60652786D01*
X107227715Y-60818386D01*
X107134781Y-61000776D01*
X107071522Y-61195465D01*
X107039500Y-61397648D01*
X96500500Y-61397648D01*
X96500500Y-54647682D01*
X107040000Y-54647682D01*
X107040000Y-54852317D01*
X107072009Y-55054417D01*
X107135244Y-55249031D01*
X107228141Y-55431350D01*
X107228147Y-55431359D01*
X107260523Y-55475921D01*
X107260524Y-55475922D01*
X107940000Y-54796446D01*
X107940000Y-54802661D01*
X107967259Y-54904394D01*
X108019920Y-54995606D01*
X108094394Y-55070080D01*
X108185606Y-55122741D01*
X108287339Y-55150000D01*
X108293553Y-55150000D01*
X107614076Y-55829474D01*
X107658650Y-55861859D01*
X107840968Y-55954755D01*
X108035582Y-56017990D01*
X108237683Y-56050000D01*
X108442317Y-56050000D01*
X108644417Y-56017990D01*
X108839031Y-55954755D01*
X109021349Y-55861859D01*
X109065921Y-55829474D01*
X108386447Y-55150000D01*
X108392661Y-55150000D01*
X108494394Y-55122741D01*
X108585606Y-55070080D01*
X108660080Y-54995606D01*
X108712741Y-54904394D01*
X108740000Y-54802661D01*
X108740000Y-54796448D01*
X109419474Y-55475922D01*
X109419474Y-55475921D01*
X109451859Y-55431349D01*
X109544755Y-55249031D01*
X109607990Y-55054417D01*
X109640000Y-54852317D01*
X109640000Y-54647682D01*
X109639995Y-54647648D01*
X117199500Y-54647648D01*
X117199500Y-54852351D01*
X117231522Y-55054534D01*
X117294781Y-55249223D01*
X117346385Y-55350500D01*
X117387585Y-55431359D01*
X117387715Y-55431613D01*
X117508028Y-55597213D01*
X117508034Y-55597219D01*
X117652781Y-55741966D01*
X117818390Y-55862287D01*
X117831793Y-55869116D01*
X117882589Y-55917088D01*
X117899500Y-55979601D01*
X117899500Y-60270397D01*
X117879815Y-60337436D01*
X117831800Y-60380879D01*
X117818389Y-60387712D01*
X117652786Y-60508028D01*
X117508028Y-60652786D01*
X117387715Y-60818386D01*
X117294781Y-61000776D01*
X117231522Y-61195465D01*
X117199500Y-61397648D01*
X117199500Y-61602351D01*
X117231522Y-61804534D01*
X117294781Y-61999223D01*
X117387715Y-62181613D01*
X117508028Y-62347213D01*
X117652786Y-62491971D01*
X117807749Y-62604556D01*
X117818390Y-62612287D01*
X117934607Y-62671503D01*
X118000776Y-62705218D01*
X118000778Y-62705218D01*
X118000781Y-62705220D01*
X118105137Y-62739127D01*
X118195465Y-62768477D01*
X118296557Y-62784488D01*
X118397648Y-62800500D01*
X118397649Y-62800500D01*
X118602351Y-62800500D01*
X118602352Y-62800500D01*
X118804534Y-62768477D01*
X118999219Y-62705220D01*
X119181610Y-62612287D01*
X119274590Y-62544732D01*
X119347213Y-62491971D01*
X119347215Y-62491968D01*
X119347219Y-62491966D01*
X119491966Y-62347219D01*
X119491968Y-62347215D01*
X119491971Y-62347213D01*
X119544732Y-62274590D01*
X119612287Y-62181610D01*
X119705220Y-61999219D01*
X119768477Y-61804534D01*
X119800500Y-61602352D01*
X119800500Y-61397648D01*
X119768477Y-61195466D01*
X119705220Y-61000781D01*
X119705218Y-61000778D01*
X119705218Y-61000776D01*
X119671503Y-60934607D01*
X119612287Y-60818390D01*
X119604556Y-60807749D01*
X119491971Y-60652786D01*
X119347213Y-60508028D01*
X119181610Y-60387712D01*
X119168200Y-60380879D01*
X119117406Y-60332903D01*
X119100500Y-60270397D01*
X119100500Y-55979601D01*
X119120185Y-55912562D01*
X119168206Y-55869116D01*
X119181610Y-55862287D01*
X119347219Y-55741966D01*
X119491966Y-55597219D01*
X119491968Y-55597215D01*
X119491971Y-55597213D01*
X119612284Y-55431614D01*
X119612285Y-55431613D01*
X119612287Y-55431610D01*
X119619117Y-55418204D01*
X119667091Y-55367409D01*
X119729602Y-55350500D01*
X120913331Y-55350500D01*
X120913347Y-55350501D01*
X120920943Y-55350501D01*
X121079054Y-55350501D01*
X121079057Y-55350501D01*
X121231785Y-55309577D01*
X121281904Y-55280639D01*
X121368716Y-55230520D01*
X121480520Y-55118716D01*
X121480520Y-55118714D01*
X121490728Y-55108507D01*
X121490729Y-55108504D01*
X135712417Y-40886819D01*
X135773740Y-40853334D01*
X135800098Y-40850500D01*
X165449903Y-40850500D01*
X165516942Y-40870185D01*
X165537584Y-40886819D01*
X170863181Y-46212416D01*
X170896666Y-46273739D01*
X170899500Y-46300097D01*
X170899500Y-66775500D01*
X170879815Y-66842539D01*
X170827011Y-66888294D01*
X170775500Y-66899500D01*
X159076670Y-66899500D01*
X159076654Y-66899499D01*
X159069058Y-66899499D01*
X158910943Y-66899499D01*
X158834579Y-66919961D01*
X158758214Y-66940423D01*
X158758209Y-66940426D01*
X158621290Y-67019475D01*
X158621282Y-67019481D01*
X155619842Y-70020921D01*
X155558519Y-70054406D01*
X155493848Y-70051173D01*
X155479534Y-70046522D01*
X155304995Y-70018878D01*
X155277352Y-70014500D01*
X155072648Y-70014500D01*
X155048329Y-70018351D01*
X154870465Y-70046522D01*
X154675776Y-70109781D01*
X154493386Y-70202715D01*
X154327786Y-70323028D01*
X154183028Y-70467786D01*
X154062715Y-70633386D01*
X153969781Y-70815776D01*
X153906522Y-71010465D01*
X153874500Y-71212648D01*
X153874500Y-71417351D01*
X153906522Y-71619534D01*
X153969781Y-71814223D01*
X154062715Y-71996613D01*
X154183028Y-72162213D01*
X154327786Y-72306971D01*
X154482749Y-72419556D01*
X154493390Y-72427287D01*
X154582212Y-72472544D01*
X154675776Y-72520218D01*
X154675778Y-72520218D01*
X154675781Y-72520220D01*
X154780137Y-72554127D01*
X154870465Y-72583477D01*
X154971557Y-72599488D01*
X155072648Y-72615500D01*
X155072649Y-72615500D01*
X155277351Y-72615500D01*
X155277352Y-72615500D01*
X155479534Y-72583477D01*
X155674219Y-72520220D01*
X155856610Y-72427287D01*
X155952901Y-72357328D01*
X156022213Y-72306971D01*
X156022215Y-72306968D01*
X156022219Y-72306966D01*
X156166966Y-72162219D01*
X156166968Y-72162215D01*
X156166971Y-72162213D01*
X156287284Y-71996614D01*
X156287286Y-71996611D01*
X156287287Y-71996610D01*
X156334516Y-71903917D01*
X156382489Y-71853123D01*
X156450310Y-71836328D01*
X156516445Y-71858865D01*
X156555485Y-71903919D01*
X156602715Y-71996614D01*
X156723028Y-72162213D01*
X156867786Y-72306971D01*
X157022749Y-72419556D01*
X157033390Y-72427287D01*
X157122212Y-72472544D01*
X157215776Y-72520218D01*
X157215778Y-72520218D01*
X157215781Y-72520220D01*
X157320137Y-72554127D01*
X157410465Y-72583477D01*
X157511557Y-72599488D01*
X157612648Y-72615500D01*
X157612649Y-72615500D01*
X157817351Y-72615500D01*
X157817352Y-72615500D01*
X158019534Y-72583477D01*
X158214219Y-72520220D01*
X158396610Y-72427287D01*
X158492901Y-72357328D01*
X158562213Y-72306971D01*
X158562215Y-72306968D01*
X158562219Y-72306966D01*
X158706966Y-72162219D01*
X158706968Y-72162215D01*
X158706971Y-72162213D01*
X158827284Y-71996614D01*
X158827286Y-71996611D01*
X158827287Y-71996610D01*
X158874516Y-71903917D01*
X158922489Y-71853123D01*
X158990310Y-71836328D01*
X159056445Y-71858865D01*
X159095485Y-71903919D01*
X159142715Y-71996614D01*
X159263028Y-72162213D01*
X159407786Y-72306971D01*
X159562749Y-72419556D01*
X159573390Y-72427287D01*
X159662212Y-72472544D01*
X159755776Y-72520218D01*
X159755778Y-72520218D01*
X159755781Y-72520220D01*
X159860137Y-72554127D01*
X159950465Y-72583477D01*
X160051557Y-72599488D01*
X160152648Y-72615500D01*
X160152649Y-72615500D01*
X160357351Y-72615500D01*
X160357352Y-72615500D01*
X160559534Y-72583477D01*
X160754219Y-72520220D01*
X160936610Y-72427287D01*
X161032901Y-72357328D01*
X161102213Y-72306971D01*
X161102215Y-72306968D01*
X161102219Y-72306966D01*
X161246966Y-72162219D01*
X161246968Y-72162215D01*
X161246971Y-72162213D01*
X161367284Y-71996614D01*
X161367286Y-71996611D01*
X161367287Y-71996610D01*
X161414516Y-71903917D01*
X161462489Y-71853123D01*
X161530310Y-71836328D01*
X161596445Y-71858865D01*
X161635485Y-71903919D01*
X161682715Y-71996614D01*
X161803028Y-72162213D01*
X161947786Y-72306971D01*
X162102749Y-72419556D01*
X162113390Y-72427287D01*
X162202212Y-72472544D01*
X162295776Y-72520218D01*
X162295778Y-72520218D01*
X162295781Y-72520220D01*
X162400137Y-72554127D01*
X162490465Y-72583477D01*
X162591557Y-72599488D01*
X162692648Y-72615500D01*
X162692649Y-72615500D01*
X162897351Y-72615500D01*
X162897352Y-72615500D01*
X163099534Y-72583477D01*
X163294219Y-72520220D01*
X163476610Y-72427287D01*
X163572901Y-72357328D01*
X163642213Y-72306971D01*
X163642215Y-72306968D01*
X163642219Y-72306966D01*
X163786966Y-72162219D01*
X163786968Y-72162215D01*
X163786971Y-72162213D01*
X163907284Y-71996614D01*
X163907286Y-71996611D01*
X163907287Y-71996610D01*
X163954516Y-71903917D01*
X164002489Y-71853123D01*
X164070310Y-71836328D01*
X164136445Y-71858865D01*
X164175485Y-71903919D01*
X164222715Y-71996614D01*
X164343028Y-72162213D01*
X164487786Y-72306971D01*
X164642749Y-72419556D01*
X164653390Y-72427287D01*
X164742212Y-72472544D01*
X164835776Y-72520218D01*
X164835778Y-72520218D01*
X164835781Y-72520220D01*
X164940137Y-72554127D01*
X165030465Y-72583477D01*
X165131557Y-72599488D01*
X165232648Y-72615500D01*
X165232649Y-72615500D01*
X165437351Y-72615500D01*
X165437352Y-72615500D01*
X165639534Y-72583477D01*
X165834219Y-72520220D01*
X166016610Y-72427287D01*
X166112901Y-72357328D01*
X166182213Y-72306971D01*
X166182215Y-72306968D01*
X166182219Y-72306966D01*
X166326966Y-72162219D01*
X166326968Y-72162215D01*
X166326971Y-72162213D01*
X166447284Y-71996614D01*
X166447286Y-71996611D01*
X166447287Y-71996610D01*
X166494516Y-71903917D01*
X166542489Y-71853123D01*
X166610310Y-71836328D01*
X166676445Y-71858865D01*
X166715485Y-71903919D01*
X166762715Y-71996614D01*
X166883028Y-72162213D01*
X167027786Y-72306971D01*
X167182749Y-72419556D01*
X167193390Y-72427287D01*
X167282212Y-72472544D01*
X167375776Y-72520218D01*
X167375778Y-72520218D01*
X167375781Y-72520220D01*
X167480137Y-72554127D01*
X167570465Y-72583477D01*
X167671557Y-72599488D01*
X167772648Y-72615500D01*
X167772649Y-72615500D01*
X167977351Y-72615500D01*
X167977352Y-72615500D01*
X168179534Y-72583477D01*
X168374219Y-72520220D01*
X168556610Y-72427287D01*
X168652901Y-72357328D01*
X168722213Y-72306971D01*
X168722215Y-72306968D01*
X168722219Y-72306966D01*
X168866966Y-72162219D01*
X168866968Y-72162215D01*
X168866971Y-72162213D01*
X168927670Y-72078666D01*
X168987287Y-71996610D01*
X169080220Y-71814219D01*
X169143477Y-71619534D01*
X169175500Y-71417352D01*
X169175500Y-71212648D01*
X169156798Y-71094570D01*
X169143477Y-71010465D01*
X169080218Y-70815776D01*
X168987419Y-70633650D01*
X168987287Y-70633390D01*
X168979556Y-70622749D01*
X168866971Y-70467786D01*
X168722213Y-70323028D01*
X168556613Y-70202715D01*
X168556612Y-70202714D01*
X168556610Y-70202713D01*
X168499653Y-70173691D01*
X168374223Y-70109781D01*
X168179534Y-70046522D01*
X168004995Y-70018878D01*
X167977352Y-70014500D01*
X167772648Y-70014500D01*
X167748329Y-70018351D01*
X167570465Y-70046522D01*
X167375776Y-70109781D01*
X167193386Y-70202715D01*
X167027786Y-70323028D01*
X166883028Y-70467786D01*
X166762715Y-70633386D01*
X166715485Y-70726080D01*
X166667510Y-70776876D01*
X166599689Y-70793671D01*
X166533554Y-70771134D01*
X166494515Y-70726080D01*
X166447419Y-70633650D01*
X166447287Y-70633390D01*
X166439556Y-70622749D01*
X166326971Y-70467786D01*
X166182213Y-70323028D01*
X166016613Y-70202715D01*
X166016612Y-70202714D01*
X166016610Y-70202713D01*
X165959653Y-70173691D01*
X165834223Y-70109781D01*
X165639534Y-70046522D01*
X165464995Y-70018878D01*
X165437352Y-70014500D01*
X165232648Y-70014500D01*
X165208329Y-70018351D01*
X165030465Y-70046522D01*
X164835776Y-70109781D01*
X164653386Y-70202715D01*
X164487786Y-70323028D01*
X164343028Y-70467786D01*
X164222715Y-70633386D01*
X164175485Y-70726080D01*
X164127510Y-70776876D01*
X164059689Y-70793671D01*
X163993554Y-70771134D01*
X163954515Y-70726080D01*
X163907419Y-70633650D01*
X163907287Y-70633390D01*
X163899556Y-70622749D01*
X163786971Y-70467786D01*
X163642213Y-70323028D01*
X163476613Y-70202715D01*
X163476612Y-70202714D01*
X163476610Y-70202713D01*
X163419653Y-70173691D01*
X163294223Y-70109781D01*
X163099534Y-70046522D01*
X162924995Y-70018878D01*
X162897352Y-70014500D01*
X162692648Y-70014500D01*
X162668329Y-70018351D01*
X162490465Y-70046522D01*
X162295776Y-70109781D01*
X162113386Y-70202715D01*
X161947786Y-70323028D01*
X161803028Y-70467786D01*
X161682715Y-70633386D01*
X161635485Y-70726080D01*
X161587510Y-70776876D01*
X161519689Y-70793671D01*
X161453554Y-70771134D01*
X161414515Y-70726080D01*
X161367419Y-70633650D01*
X161367287Y-70633390D01*
X161359556Y-70622749D01*
X161246971Y-70467786D01*
X161102213Y-70323028D01*
X160936613Y-70202715D01*
X160936612Y-70202714D01*
X160936610Y-70202713D01*
X160879653Y-70173691D01*
X160754223Y-70109781D01*
X160559534Y-70046522D01*
X160384995Y-70018878D01*
X160357352Y-70014500D01*
X160152648Y-70014500D01*
X160128329Y-70018351D01*
X159950465Y-70046522D01*
X159755776Y-70109781D01*
X159573386Y-70202715D01*
X159407786Y-70323028D01*
X159263028Y-70467786D01*
X159142715Y-70633386D01*
X159095485Y-70726080D01*
X159047510Y-70776876D01*
X158979689Y-70793671D01*
X158913554Y-70771134D01*
X158874515Y-70726080D01*
X158827419Y-70633650D01*
X158827287Y-70633390D01*
X158819556Y-70622749D01*
X158706971Y-70467786D01*
X158562213Y-70323028D01*
X158396613Y-70202715D01*
X158396612Y-70202714D01*
X158396610Y-70202713D01*
X158339653Y-70173691D01*
X158214223Y-70109781D01*
X158019534Y-70046522D01*
X157844995Y-70018878D01*
X157817352Y-70014500D01*
X157624097Y-70014500D01*
X157557058Y-69994815D01*
X157511303Y-69942011D01*
X157501359Y-69872853D01*
X157530384Y-69809297D01*
X157536416Y-69802819D01*
X159202417Y-68136819D01*
X159263740Y-68103334D01*
X159290098Y-68100500D01*
X171163331Y-68100500D01*
X171163347Y-68100501D01*
X171170943Y-68100501D01*
X171329054Y-68100501D01*
X171329057Y-68100501D01*
X171481785Y-68059577D01*
X171531904Y-68030639D01*
X171618716Y-67980520D01*
X171730520Y-67868716D01*
X171730520Y-67868714D01*
X171740728Y-67858507D01*
X171740730Y-67858504D01*
X171858506Y-67740728D01*
X171858511Y-67740724D01*
X171868714Y-67730520D01*
X171868716Y-67730520D01*
X171980520Y-67618716D01*
X172059577Y-67481784D01*
X172100500Y-67329057D01*
X172100500Y-46089059D01*
X172100501Y-46089046D01*
X172100501Y-45920945D01*
X172100501Y-45920943D01*
X172059577Y-45768215D01*
X172030639Y-45718095D01*
X171980520Y-45631284D01*
X171868716Y-45519480D01*
X171868715Y-45519479D01*
X171864385Y-45515149D01*
X171864374Y-45515139D01*
X166237590Y-39888355D01*
X166237588Y-39888352D01*
X166118717Y-39769481D01*
X166118716Y-39769480D01*
X166031904Y-39719360D01*
X166031904Y-39719359D01*
X166031900Y-39719358D01*
X165981785Y-39690423D01*
X165829057Y-39649499D01*
X165670943Y-39649499D01*
X165663347Y-39649499D01*
X165663331Y-39649500D01*
X135586670Y-39649500D01*
X135586654Y-39649499D01*
X135579058Y-39649499D01*
X135420943Y-39649499D01*
X135344579Y-39669961D01*
X135268214Y-39690423D01*
X135268209Y-39690426D01*
X135131290Y-39769475D01*
X135131282Y-39769481D01*
X120787584Y-54113181D01*
X120726261Y-54146666D01*
X120699903Y-54149500D01*
X119729602Y-54149500D01*
X119662563Y-54129815D01*
X119619117Y-54081795D01*
X119612284Y-54068385D01*
X119491971Y-53902786D01*
X119347213Y-53758028D01*
X119181613Y-53637715D01*
X119181612Y-53637714D01*
X119181610Y-53637713D01*
X119124653Y-53608691D01*
X118999223Y-53544781D01*
X118804534Y-53481522D01*
X118629995Y-53453878D01*
X118602352Y-53449500D01*
X118397648Y-53449500D01*
X118373329Y-53453351D01*
X118195465Y-53481522D01*
X118000776Y-53544781D01*
X117818386Y-53637715D01*
X117652786Y-53758028D01*
X117508028Y-53902786D01*
X117387715Y-54068386D01*
X117294781Y-54250776D01*
X117231522Y-54445465D01*
X117199500Y-54647648D01*
X109639995Y-54647648D01*
X109607990Y-54445582D01*
X109544755Y-54250968D01*
X109451859Y-54068650D01*
X109419474Y-54024077D01*
X109419474Y-54024076D01*
X108740000Y-54703551D01*
X108740000Y-54697339D01*
X108712741Y-54595606D01*
X108660080Y-54504394D01*
X108585606Y-54429920D01*
X108494394Y-54377259D01*
X108392661Y-54350000D01*
X108386446Y-54350000D01*
X109065922Y-53670524D01*
X109065921Y-53670523D01*
X109021359Y-53638147D01*
X109021350Y-53638141D01*
X108839031Y-53545244D01*
X108644417Y-53482009D01*
X108442317Y-53450000D01*
X108237683Y-53450000D01*
X108035582Y-53482009D01*
X107840968Y-53545244D01*
X107658644Y-53638143D01*
X107614077Y-53670523D01*
X107614077Y-53670524D01*
X108293554Y-54350000D01*
X108287339Y-54350000D01*
X108185606Y-54377259D01*
X108094394Y-54429920D01*
X108019920Y-54504394D01*
X107967259Y-54595606D01*
X107940000Y-54697339D01*
X107940000Y-54703553D01*
X107260524Y-54024077D01*
X107260523Y-54024077D01*
X107228143Y-54068644D01*
X107135244Y-54250968D01*
X107072009Y-54445582D01*
X107040000Y-54647682D01*
X96500500Y-54647682D01*
X96500500Y-38624500D01*
X96520185Y-38557461D01*
X96572989Y-38511706D01*
X96624500Y-38500500D01*
X174625500Y-38500500D01*
X174692539Y-38520185D01*
G37*
%TD.AperFunction*%
%TD*%
M02*
